<svg width="582" height="582" viewBox="0 0 582 582" fill="none" xmlns="http://www.w3.org/2000/svg"><g clip-path="url(#a)"><path d="M580.38 260.76h-60.54v-.23h-65.66c-.24-2-.49-4.13-.74-6.19-.18-1.43-1-8.19-1-8.19l-1-8.09-.56-4.62-1.19-9.9-.19-1.64c-1.56-3.64-3.227-7.21-5-10.71l-2.56-.4c-2.31-.36-4.64-.69-6.88-1l-4.21-.58c-2.72-.4-5.45-.77-8.19-1.15l-8.36-1.15c-.507-1.807-1.01-3.617-1.51-5.43-2.4-8.513-4.763-17.023-7.09-25.53h-1.33v-4.85c-1.333-4.82-2.637-9.623-3.91-14.41a3501.415 3501.415 0 0 1-3.17-11.75 8.671 8.671 0 0 0-.82-2l-.28-.54-.44-.57a9.65 9.65 0 0 0-5.15-3.38l-13.39-4.66-53.68-18.66-7.83-2.56-2 .72c-2 .71-4.05 1.37-6.19 2.07l-2.07.67-4 1.3c-5.32-2.85-10.82-5.79-16.29-8.63-3.5-1.82-7.06-3.6-10.5-5.32l-3.65-1.84-17.75-8.89-4-2c-.32-.16-.63-.31-1-.45l-3.8-1.79-3.79 1.65-.81.36-62.27 28.85-21.46 10a9.85 9.85 0 0 0-5.85 6.35l-.07.17a7.657 7.657 0 0 0-.29.71L134.5 176l-10 25.53-6.15 15.76-2.58 6.71-2.86 7.44 1.47 3 1.74 3.59 2.27 4.63 4.36 8.88 4.45 9.06H61.07a229.902 229.902 0 0 1 15.68-59h-.6A232.064 232.064 0 0 1 227.73 67.09l.36-.11 2.08-.56a231.443 231.443 0 0 1 60-7.84c96.49 0 179.19 59 214 142.91h63.82A289.004 289.004 0 0 0 535.37 133C483.52 53 393.43 0 291 0 161.5 0 51.77 84.57 14 201.49a288.312 288.312 0 0 0-12.44 59.27A293.841 293.841 0 0 0 0 290.13v4.13c.12 8.587.607 17.087 1.46 25.5h154.8l.47.3 2.63 1.71 2.62 1.69c.511.116 1.029.199 1.55.25l3 .28 2.49.23 5.79.58 2.75.26 2.62.24 3 .3 3 .3 5.47.51c.83.09 1.65.16 2.48.23 1.88.18 3.66.34 5.43.55 4.62.55 9.33 1.16 13.89 1.75l1 .13c3.11.4 6.21.82 9.32 1.24 0 .45-.26 5.54-.26 5.54l-.21 4.9s-.43 10.39-.53 12.87c-.17 3.79-.33 7.57-.53 11.36a12.001 12.001 0 0 0 .95 5.2c1.24 3.053 2.473 6.103 3.7 9.15.71 1.7 1.39 3.41 2.08 5.12.13.3.25.61.38.91l7.68 19c7.5 18.52 15 37.037 22.5 55.55 4.493 11.08 8.98 22.16 13.46 33.24 0 0 .14.45.2.62l1.9 5.82h8.81l.94-.35c1.4-.16 7.55-.87 9.22-1.05l4.59-.54c1.31-.15 2.63-.32 3.93-.46l3.38-.38 3.28-.37 3.81-.45 2.88-.33 13.45-1.66 6.67-.75 6.66-.78 6.67-.76 1.59-.19 4-.49 2.14-2.58a11.872 11.872 0 0 0 1.94-3.42v-.08l5.09-12c3.65-8.61 7.44-17.51 11.2-26.24 1.13-2.63 2.2-5.29 3.23-7.93 1.08-2.79 2.12-5.58 3.14-8.32l1.24-3.29a3751.53 3751.53 0 0 0 5.39-14.47l1.6-4.29 6.68-4.19 7.73-4.85 5.28-3.32.79-.5 4.21-2.73v-6.49c-.127-2.373-.263-4.74-.41-7.1 0-.58-.07-1.15-.1-1.73-.12-2-.25-3.94-.37-5.91l-.2-3.11c-.08-1.38-.17-2.76-.24-4.15 0 0-.6-10.29-.76-13-.16-2.71-.82-13.64-.82-13.64L424.08 320l.21-.3h96.59v.3A230.028 230.028 0 0 1 505 379.3a232.698 232.698 0 0 1-100.62 113 232.464 232.464 0 0 1-174.18 21.53c-.69-.18-1.39-.37-2.08-.57l-.36-.1c-1.1-.3-2.2-.62-3.3-.95A232.003 232.003 0 0 1 88.88 404.73a227.947 227.947 0 0 1-12.51-25.43H13.66C51.05 496.82 161.07 581.94 291 581.94c129.93 0 239.89-85.12 277.28-202.64H568a288.473 288.473 0 0 0 12.42-59.3v-.3c.847-8.4 1.337-16.9 1.47-25.5v-4.1a293.977 293.977 0 0 0-1.51-29.34Zm-209.1 109.55-.45.3.46-.46c0 .05-.01.1-.01.16Zm30.06-106.24c-.11.16-.21.32-.32.47l-38.52 55.19-.06.08-.15.22a10.38 10.38 0 0 0-2 7.45l2.3 38.34a6998.442 6998.442 0 0 1-11.46 7.17 9.176 9.176 0 0 0-3.74 4.58c-.21.58-.43 1.15-.64 1.73-1.493 4-2.977 8-4.45 12l-4.85 13c-2.08 5.567-4.15 11.097-6.21 16.59-.64 1.72-1.4 3.45-2.18 5.27-.33.74-.65 1.47-1 2.21-2.207 5.2-4.42 10.397-6.64 15.59l-2 .24c-3.68.42-7.34.85-11 1.26C305 437 292 404.94 292 404.94c-.09-.22-.18-.43-.26-.65l-.33-.78c-3.26-8.08-6.53-16.15-9.81-24.21l-8.34-20.59c.14-3 .28-6 .41-9.07l.11-2.34c.09-1.87.17-3.76.25-5.64l.21-5.22c.11-2.55.21-5.09.32-7.64.12-2.92.25-5.84.37-8.77v-.3c0-.52 0-1 .07-1.54l.86-19.62c0-.49 0-1 .08-1.48s.05-1 .07-1.48c.02-.48 0-.76 0-1.16l.4-7.43-5.38-.88c-.32-.08-2.48-.39-3.13-.49L257.16 284l-9.46-1.44-9.49-1.42c-2.85-.42-5.7-.84-8.56-1.23-1.56-.22-3.11-.43-4.67-.63l-2.68-.28-2.74-.37c-1.57-.22-3.15-.43-4.72-.63l-2.67-.36c-2.54-.34-5.16-.7-7.87-.92-1.62-.13-3.24-.3-4.86-.46-1-.11-1.94-.21-2.9-.3l-4.54-.46-1.08-.1c-2.387-4.88-4.78-9.76-7.18-14.64a2.424 2.424 0 0 0-.11-.23l-.27-.55c-.58-1.14-.68-1.4-1.09-2.21a5724.61 5724.61 0 0 1-4.36-8.9l-.32-.65-9.49-19.34c.17-.56.34-1.21.52-1.95a220.788 220.788 0 0 1 7.91-25.44c.34-.92.69-1.85 1.06-2.77A247.895 247.895 0 0 1 187.86 176c.83-1.63 1.69-3.25 2.56-4.87.51-1 .93-1.8 1.26-2.49l51.95-24.08 3 1.48c4.46 2.24 9.09 4.54 13.59 6.84 3.06 1.55 6.17 3.22 9.18 4.83l3.83 2s19.27 10.23 19.29 10.23a9.602 9.602 0 0 0 5.09 1.44 10.55 10.55 0 0 0 3.51-.61c1.42-.48 2.84-.94 4.27-1.41l4.39-1.44c2-.63 3.89-1.27 5.84-1.93 9.54 3.333 19.087 6.667 28.64 10l3.57 1.25 6.22 2.16 5.73 20.6.4 1.47 14.09 50.65 5.06 1c1.4.29 2.72.46 3.88.61l1.5.2c1.1.16 2.2.32 3.3.46l1.57.22 9.54 1.33c1.87.26 3.34.46 3.55.5 0 .28.32 2.73.48 4v.23c0 .36.06.59.06.59l-1.87 2.81Z" fill="#1F8BFF"/></g><defs><clipPath id="a"><path fill="#fff" d="M0 0h581.94v581.94H0z"/></clipPath></defs></svg>
