<svg xmlns="http://www.w3.org/2000/svg" width="1500" height="1500" style="shape-rendering:geometricPrecision;text-rendering:geometricPrecision;image-rendering:optimizeQuality;fill-rule:evenodd;clip-rule:evenodd"><path style="opacity:.998" fill="#fefefe" d="M711.5-.5h76c184.577 11.76 344.24 80.26 479 205.5 142.32 138.508 219.99 307.341 233 506.5v76c-11.76 184.577-80.26 344.24-205.5 479-138.51 142.32-307.341 219.99-506.5 233h-76c-184.577-11.76-344.244-80.26-479-205.5C90.18 1155.49 12.514 986.659-.5 787.5v-76c11.76-184.577 80.26-344.244 205.5-479C343.508 90.18 512.341 12.514 711.5-.5Z"/><path style="opacity:1" fill="#0149e7" d="M922.5 390.5v1a130.23 130.23 0 0 0-16 21 90.081 90.081 0 0 0-9 13c-7.309 11.62-13.309 23.954-18 37-1.371 2.436-2.371 5.103-3 8-4.226 10.9-7.226 22.233-9 34a258.02 258.02 0 0 0-3.5 23c-.383.556-.883.889-1.5 1-5.786-33.749-22.786-60.249-51-79.5-47.435-27.254-92.769-24.254-136 9-24.99 21.813-38.323 49.313-40 82.5a3421.39 3421.39 0 0 0-1 117h-117c-.167-43.335 0-86.668.5-130 10.018-88.97 54.851-153.47 134.5-193.5 49.697-22.086 101.03-26.752 154-14 45.883 12.087 84.549 35.587 116 70.5Z"/><path style="opacity:1" fill="#35beec" d="M1080.5 315.5c8.82-1.157 17.82-1.324 27-.5 7.32.999 14.66 1.832 22 2.5-.14 1.624.53 2.79 2 3.5-.67.333-1.33.667-2 1 1.12.249 2.12.749 3 1.5 4.18 7.032 8.35 14.032 12.5 21a22.617 22.617 0 0 1 2 7c.67 1.333 1.33 1.333 2 0a198.216 198.216 0 0 0 11.5 20.5c-.33.333-.67.667-1 1a23.166 23.166 0 0 1 6 7c-.33.333-.67.667-1 1 1.65 3.56 3.65 6.227 6 8-.33.333-.67.667-1 1 2.88 1.589 4.38 4.089 4.5 7.5 1.67-.84 1.83-.34.5 1.5l9 13c-.33.333-.67.667-1 1 2.92 3.09 5.25 6.59 7 10.5-1.13 2.029-.63 2.363 1.5 1 .31 1.266.81 2.433 1.5 3.5-.85 1.558-.18 2.558 2 3-.33.333-.67.667-1 1 3.98 4.062 6.98 9.229 9 15.5l3 2.5c-.67.333-1.33.667-2 1 4.55 3.197 7.22 7.197 8 12a314.603 314.603 0 0 1 13 20c.53 1.256.53 2.756 0 4.5 1.13.762 2.29 1.429 3.5 2 4.78 8.933 9.61 17.767 14.5 26.5-1.15.914-.99 1.747.5 2.5.33-.333.67-.667 1-1 .27 1.829 1.11 3.329 2.5 4.5-.46.414-.79.914-1 1.5 3.4 1.632 4.73 4.132 4 7.5 1.8.317 2.13.984 1 2 1.05 1.119 2.22 1.619 3.5 1.5a403.954 403.954 0 0 0 18.5 33 4.473 4.473 0 0 1-2 1.5l4 1c-2.4.805-2.23 1.638.5 2.5a34.92 34.92 0 0 0 5.5 8.5c-.67.333-1.33.667-2 1 1.26.417 1.92 1.25 2 2.5h-40c1.01-1.439.68-2.772-1-4a10.252 10.252 0 0 0-4-1.5 7.32 7.32 0 0 0 3-2 64.749 64.749 0 0 0-8-11c-.1-2.355-1.27-4.522-3.5-6.5-3.6-8.413-8.43-16.58-14.5-24.5.57-2.361-.43-4.194-3-5.5a28.718 28.718 0 0 1-1.5-5c-.33.667-.67 1.333-1 2-.42-1.256-1.25-1.923-2.5-2-4.88-23.089-15.54-43.089-32-60 .44.065.77-.101 1-.5-6.24-9.177-11.57-18.511-16-28-2.62-.576-3.29-1.91-2-4-1.33-2.667-3.33-4.667-6-6 1-2.091.33-3.757-2-5 .33-.333.67-.667 1-1a194.056 194.056 0 0 1-11.5-19.5c-3.17-4.833-6.33-9.667-9.5-14.5.33-.333.67-.667 1-1a227.675 227.675 0 0 1-9-13c.33-.333.67-.667 1-1-2.51-2.057-3.85-4.39-4-7-2.93-3.955-5.26-7.788-7-11.5a6.845 6.845 0 0 0-3-1.5c-.32-4.284-2.32-7.951-6-11 .33-.333.67-.667 1-1-.97-2.635-2.64-4.635-5-6 .8-1.749.13-3.082-2-4 .33-.333.67-.667 1-1-1.54-1.11-2.2-2.61-2-4.5a4.939 4.939 0 0 1-3-.5c1.13-1.016.8-1.683-1-2 .46-.414.79-.914 1-1.5-1.35-1.024-2.02-2.357-2-4h-8Z"/><path style="opacity:1" fill="#32b8ec" d="M1080.5 315.5h8c-.02 1.643.65 2.976 2 4a3.627 3.627 0 0 1-1 1.5c1.8.317 2.13.984 1 2 .95.483 1.95.649 3 .5-.2 1.89.46 3.39 2 4.5-.33.333-.67.667-1 1 2.13.918 2.8 2.251 2 4 2.36 1.365 4.03 3.365 5 6-.33.333-.67.667-1 1 3.68 3.049 5.68 6.716 6 11 1.12.249 2.12.749 3 1.5 1.74 3.712 4.07 7.545 7 11.5.15 2.61 1.49 4.943 4 7-.33.333-.67.667-1 1 2.84 4.424 5.84 8.757 9 13-.33.333-.67.667-1 1 3.17 4.833 6.33 9.667 9.5 14.5a194.056 194.056 0 0 0 11.5 19.5c-.33.333-.67.667-1 1 2.33 1.243 3 2.909 2 5 2.67 1.333 4.67 3.333 6 6-1.29 2.09-.62 3.424 2 4 4.43 9.489 9.76 18.823 16 28-.23.399-.56.565-1 .5-16.59-15.294-35.92-25.294-58-30 .19-3.309-1.14-5.809-4-7.5.61-2.184-.06-4.184-2-6-3.04-.359-3.38-1.026-1-2a90.102 90.102 0 0 0-10-15c.69-2.87-.64-4.537-4-5 .87-1.727.71-3.56-.5-5.5-.91 1.154-1.75.987-2.5-.5.16-5.644-2.51-9.644-8-12 .67-.333 1.33-.667 2-1a16.643 16.643 0 0 0-4-4c1.17-1.868 1.01-3.702-.5-5.5a1671.013 1671.013 0 0 1-27-47 9.39 9.39 0 0 0-2.5-1.5c1.1-.77 1.1-1.603 0-2.5 9.7-2.508 19.7-3.842 30-4Z"/><path style="opacity:1" fill="#37c4ec" d="M1129.5 317.5a244.468 244.468 0 0 1 48 13 221.403 221.403 0 0 0 15 27.5c-.33.333-.67.667-1 1 1.44 2.242 3.44 4.575 6 7-.46.414-.79.914-1 1.5l3 2.5c-.95.718-1.12 1.551-.5 2.5.67-1.333 1.33-1.333 2 0a235.8 235.8 0 0 0 7.5 12.5v3a58.487 58.487 0 0 1 7 10.5c-1.05 1.602-.38 2.435 2 2.5-.33.333-.67.667-1 1a25.553 25.553 0 0 1 4 4.5c-1.11 1.465-.61 2.465 1.5 3a85.675 85.675 0 0 0 6.5 10.5v4c3.37 2.793 6.04 6.126 8 10-.33.333-.67.667-1 1a39.23 39.23 0 0 1 6 8.5c-1.11 1.465-.61 2.465 1.5 3 1.2 3.341 3.2 6.675 6 10 .62.949.45 1.782-.5 2.5 2.39.284 3.05 1.284 2 3a30.679 30.679 0 0 1 7 9.5 18.237 18.237 0 0 0 2 3.5c-.33.333-.67.667-1 1 3.77 1.389 3.77 2.389 0 3 1.44.219 2.77.719 4 1.5 5.42 10.079 11.09 19.579 17 28.5-.95.718-1.12 1.551-.5 2.5l7.5 9.5c-.84 1.011-1.17 2.178-1 3.5h3c-.11 2.403.89 4.236 3 5.5-.67.333-1.33.667-2 1 2.17 1.5 4 3.333 5.5 5.5.62.949.45 1.782-.5 2.5 2.71 2.099 4.71 4.766 6 8a3.92 3.92 0 0 1-1 2c2.8.439 3.8 1.772 3 4 2.96.84 3.3 1.84 1 3 3.85 3.037 6.85 6.87 9 11.5a3.627 3.627 0 0 1-1 1.5c2.74 2.349 4.74 4.683 6 7-.33.333-.67.667-1 1 1.97 1.456 3.3 3.29 4 5.5v2h-40c-.08-1.25-.74-2.083-2-2.5.67-.333 1.33-.667 2-1a34.92 34.92 0 0 1-5.5-8.5c-2.73-.862-2.9-1.695-.5-2.5l-4-1a4.473 4.473 0 0 0 2-1.5 403.954 403.954 0 0 1-18.5-33c-1.28.119-2.45-.381-3.5-1.5 1.13-1.016.8-1.683-1-2 .73-3.368-.6-5.868-4-7.5.21-.586.54-1.086 1-1.5-1.39-1.171-2.23-2.671-2.5-4.5-.33.333-.67.667-1 1-1.49-.753-1.65-1.586-.5-2.5-4.89-8.733-9.72-17.567-14.5-26.5a26.393 26.393 0 0 1-3.5-2c.53-1.744.53-3.244 0-4.5a314.603 314.603 0 0 0-13-20c-.78-4.803-3.45-8.803-8-12 .67-.333 1.33-.667 2-1l-3-2.5c-2.02-6.271-5.02-11.438-9-15.5.33-.333.67-.667 1-1-2.18-.442-2.85-1.442-2-3a11.381 11.381 0 0 1-1.5-3.5c-2.13 1.363-2.63 1.029-1.5-1a37.432 37.432 0 0 0-7-10.5c.33-.333.67-.667 1-1l-9-13c1.33-1.84 1.17-2.34-.5-1.5-.12-3.411-1.62-5.911-4.5-7.5.33-.333.67-.667 1-1-2.35-1.773-4.35-4.44-6-8 .33-.333.67-.667 1-1a23.166 23.166 0 0 0-6-7c.33-.333.67-.667 1-1a198.216 198.216 0 0 1-11.5-20.5c-.67 1.333-1.33 1.333-2 0a22.617 22.617 0 0 0-2-7c-4.15-6.968-8.32-13.968-12.5-21a6.845 6.845 0 0 0-3-1.5c.67-.333 1.33-.667 2-1-1.47-.71-2.14-1.876-2-3.5Z"/><path style="opacity:1" fill="#2eb2ec" d="M1050.5 319.5c1.1.897 1.1 1.73 0 2.5a9.39 9.39 0 0 1 2.5 1.5c8.71 15.75 17.71 31.417 27 47 1.51 1.798 1.67 3.632.5 5.5a16.643 16.643 0 0 1 4 4c-.67.333-1.33.667-2 1 5.49 2.356 8.16 6.356 8 12 .75 1.487 1.59 1.654 2.5.5 1.21 1.94 1.37 3.773.5 5.5 3.36.463 4.69 2.13 4 5a90.102 90.102 0 0 1 10 15c-2.38.974-2.04 1.641 1 2 1.94 1.816 2.61 3.816 2 6 2.86 1.691 4.19 4.191 4 7.5-15.11-2.893-30.11-2.56-45 1-.71-2.255-2.05-4.088-4-5.5.95-.718 1.12-1.551.5-2.5a113.422 113.422 0 0 0-9.5-12.5c.46-.414.79-.914 1-1.5a763.01 763.01 0 0 0-23-38.5c.33-.333.67-.667 1-1a55.022 55.022 0 0 0-8-9.5c.33-.667.67-1.333 1-2-5.97-9.701-11.14-18.701-15.5-27-.95-1.593-2.12-2.926-3.5-4 12.98-5.999 26.65-9.999 41-12Z"/><path style="opacity:1" fill="#3ccaeb" d="M1177.5 330.5c27.53 10.919 51.87 26.586 73 47 5.65 10.999 11.98 22.165 19 33.5-.67.333-1.33.667-2 1 2.44.774 4.27 2.274 5.5 4.5 1.12 3.108 2.46 6.442 4 10a33.685 33.685 0 0 1 6.5 9 3.627 3.627 0 0 1-1 1.5c1.12.249 2.12.749 3 1.5-.83.951-.99 1.951-.5 3 .67-1.333 1.33-1.333 2 0 5.81 10.656 11.64 20.823 17.5 30.5v3c3.39 1.006 4.39 3.006 3 6 1.12.249 2.12.749 3 1.5a10.979 10.979 0 0 0 3 4.5c-1.13 1.016-.8 1.683 1 2-1.33 1.84-1.17 2.34.5 1.5.7 2.084 1.86 3.751 3.5 5 7.05 28.86 7.71 57.86 2 87-.7-2.21-2.03-4.044-4-5.5.33-.333.67-.667 1-1-1.26-2.317-3.26-4.651-6-7 .46-.414.79-.914 1-1.5-2.15-4.63-5.15-8.463-9-11.5 2.3-1.16 1.96-2.16-1-3 .8-2.228-.2-3.561-3-4a3.92 3.92 0 0 0 1-2c-1.29-3.234-3.29-5.901-6-8 .95-.718 1.12-1.551.5-2.5-1.5-2.167-3.33-4-5.5-5.5.67-.333 1.33-.667 2-1-2.11-1.264-3.11-3.097-3-5.5h-3c-.17-1.322.16-2.489 1-3.5l-7.5-9.5c-.62-.949-.45-1.782.5-2.5-5.91-8.921-11.58-18.421-17-28.5a10.252 10.252 0 0 0-4-1.5c3.77-.611 3.77-1.611 0-3 .33-.333.67-.667 1-1a18.237 18.237 0 0 1-2-3.5 30.679 30.679 0 0 0-7-9.5c1.05-1.716.39-2.716-2-3 .95-.718 1.12-1.551.5-2.5-2.8-3.325-4.8-6.659-6-10-2.11-.535-2.61-1.535-1.5-3a39.23 39.23 0 0 0-6-8.5c.33-.333.67-.667 1-1-1.96-3.874-4.63-7.207-8-10v-4a85.675 85.675 0 0 1-6.5-10.5c-2.11-.535-2.61-1.535-1.5-3a25.553 25.553 0 0 0-4-4.5c.33-.333.67-.667 1-1-2.38-.065-3.05-.898-2-2.5a58.487 58.487 0 0 0-7-10.5v-3a235.8 235.8 0 0 1-7.5-12.5c-.67-1.333-1.33-1.333-2 0-.62-.949-.45-1.782.5-2.5l-3-2.5c.21-.586.54-1.086 1-1.5-2.56-2.425-4.56-4.758-6-7 .33-.333.67-.667 1-1a221.403 221.403 0 0 1-15-27.5Z"/><path style="opacity:1" fill="#2babec" d="M1009.5 331.5c1.38 1.074 2.55 2.407 3.5 4 4.36 8.299 9.53 17.299 15.5 27-.33.667-.67 1.333-1 2a55.022 55.022 0 0 1 8 9.5c-.33.333-.67.667-1 1a763.01 763.01 0 0 1 23 38.5 3.627 3.627 0 0 1-1 1.5c3.37 3.837 6.54 8.004 9.5 12.5.62.949.45 1.782-.5 2.5 1.95 1.412 3.29 3.245 4 5.5a140.684 140.684 0 0 0-33 13 18.204 18.204 0 0 0-4-6.5c.46-1.943-.54-3.276-3-4 .67-.333 1.33-.667 2-1a7.014 7.014 0 0 1-2.5-3.5c-1.07.78-2.24.613-3.5-.5 2.31-1.828 1.97-3.494-1-5-.91-4.258-2.91-8.425-6-12.5a6.845 6.845 0 0 0-3-1.5c.67-.333 1.33-.667 2-1a64.474 64.474 0 0 1-6.5-11.5 11.323 11.323 0 0 0-3.5-1.5c1.38-2.54.71-4.54-2-6 .33-.333.67-.667 1-1a362.605 362.605 0 0 0-5-5c.46-.414.79-.914 1-1.5-2.18-1.85-3.677-4.184-4.5-7-2.109-.535-2.609-1.535-1.5-3-1.502-2.207-3.002-4.874-4.5-8-.914 1.154-1.747.987-2.5-.5l2-1c-2.232-1.989-3.732-4.489-4.5-7.5a9.454 9.454 0 0 0-2.5-1.5l1-1-3.5-5.5c-1.666.84-1.833.34-.5-1.5-1.117-1.892-2.784-2.725-5-2.5 10.299-6.649 21.299-11.982 33-16Z"/><path style="opacity:1" fill="#27a5ed" d="M976.5 347.5c2.216-.225 3.883.608 5 2.5-1.333 1.84-1.166 2.34.5 1.5l3.5 5.5-1 1c.916.374 1.75.874 2.5 1.5.768 3.011 2.268 5.511 4.5 7.5l-2 1c.753 1.487 1.586 1.654 2.5.5 1.498 3.126 2.998 5.793 4.5 8-1.109 1.465-.609 2.465 1.5 3 .823 2.816 2.32 5.15 4.5 7a3.627 3.627 0 0 1-1 1.5c1.66 1.624 3.32 3.291 5 5-.33.333-.67.667-1 1 2.71 1.46 3.38 3.46 2 6 1.27.309 2.43.809 3.5 1.5a64.474 64.474 0 0 0 6.5 11.5c-.67.333-1.33.667-2 1 1.12.249 2.12.749 3 1.5 3.09 4.075 5.09 8.242 6 12.5 2.97 1.506 3.31 3.172 1 5 1.26 1.113 2.43 1.28 3.5.5a7.014 7.014 0 0 0 2.5 3.5c-.67.333-1.33.667-2 1 2.46.724 3.46 2.057 3 4a18.204 18.204 0 0 1 4 6.5 212.445 212.445 0 0 0-27 22 231.747 231.747 0 0 0-9.5-18l-1 2c-.684-1.284-.517-2.451.5-3.5a763.281 763.281 0 0 0-11-18.5 6.802 6.802 0 0 0-3-1.5c.561-1.566-.106-2.899-2-4l1-1a15.256 15.256 0 0 1-1.5-4.5c-1.832-2.861-3.999-5.361-6.5-7.5l1-1c-.864-2.071-2.197-3.738-4-5l1-1a197.609 197.609 0 0 0-15.5-23.5c.635-2.891-.532-5.058-3.5-6.5.459-1.943-.541-3.276-3-4a3.647 3.647 0 0 0 1-1.5c-1.353-1.024-2.02-2.357-2-4h-3a139.525 139.525 0 0 1 28-20Z"/><path style="opacity:1" fill="#259fed" d="M948.5 367.5h3c-.02 1.643.647 2.976 2 4a3.647 3.647 0 0 1-1 1.5c2.459.724 3.459 2.057 3 4 2.968 1.442 4.135 3.609 3.5 6.5a197.609 197.609 0 0 1 15.5 23.5l-1 1c1.803 1.262 3.136 2.929 4 5l-1 1c2.501 2.139 4.668 4.639 6.5 7.5a15.256 15.256 0 0 0 1.5 4.5l-1 1c1.894 1.101 2.561 2.434 2 4a6.802 6.802 0 0 1 3 1.5 763.281 763.281 0 0 1 11 18.5c-1.017 1.049-1.184 2.216-.5 3.5l1-2c3.44 5.873 6.6 11.873 9.5 18-8.82 10.64-15.815 22.307-21 35a294.05 294.05 0 0 1-4.5-13c-.667 1.333-1.333 1.333-2 0a183.99 183.99 0 0 0-15-27c-.564-3.627-2.064-6.793-4.5-9.5l1-1c-3.371-2.837-6.038-6.171-8-10l2-1c-1.632-1.31-3.299-1.81-5-1.5 2.927-2.316 2.593-3.816-1-4.5v-3c-1.228-2.14-2.895-3.807-5-5a3.647 3.647 0 0 0 1-1.5 33.242 33.242 0 0 1-3.5-6 11.333 11.333 0 0 0-3.5-1.5c2.391-.691 2.391-1.691 0-3l1-1h-4c1.711-1.133 2.211-2.633 1.5-4.5-1.281.119-2.448-.381-3.5-1.5.951-.718 1.117-1.551.5-2.5a454.993 454.993 0 0 1-10.5-16c-.825-.886-1.825-1.219-3-1v-1a211.66 211.66 0 0 1 26-23Z"/><path style="opacity:1" fill="#44d0eb" d="M1250.5 377.5c34.98 31.935 57.65 71.269 68 118-1.64-1.249-2.8-2.916-3.5-5-1.67.84-1.83.34-.5-1.5-1.8-.317-2.13-.984-1-2a10.979 10.979 0 0 1-3-4.5 6.845 6.845 0 0 0-3-1.5c1.39-2.994.39-4.994-3-6v-3c-5.86-9.677-11.69-19.844-17.5-30.5-.67-1.333-1.33-1.333-2 0-.49-1.049-.33-2.049.5-3a6.845 6.845 0 0 0-3-1.5c.46-.414.79-.914 1-1.5a33.685 33.685 0 0 0-6.5-9c-1.54-3.558-2.88-6.892-4-10-1.23-2.226-3.06-3.726-5.5-4.5.67-.333 1.33-.667 2-1-7.02-11.335-13.35-22.501-19-33.5Z"/><path style="opacity:1" fill="#2199ed" d="M922.5 391.5c1.175-.219 2.175.114 3 1a454.993 454.993 0 0 0 10.5 16c.617.949.451 1.782-.5 2.5 1.052 1.119 2.219 1.619 3.5 1.5.711 1.867.211 3.367-1.5 4.5h4l-1 1c2.391 1.309 2.391 2.309 0 3 1.266.309 2.433.809 3.5 1.5a33.242 33.242 0 0 0 3.5 6 3.647 3.647 0 0 1-1 1.5c2.105 1.193 3.772 2.86 5 5v3c3.593.684 3.927 2.184 1 4.5 1.701-.31 3.368.19 5 1.5l-2 1c1.962 3.829 4.629 7.163 8 10l-1 1c2.436 2.707 3.936 5.873 4.5 9.5a183.99 183.99 0 0 1 15 27c.667 1.333 1.333 1.333 2 0a294.05 294.05 0 0 0 4.5 13 92.648 92.648 0 0 0-6 28c-.983 3.798-1.317 7.798-1 12a89.59 89.59 0 0 1-3-3.5l1-1c-1.451.263-2.784.096-4-.5.928-1.268 1.095-2.601.5-4-2.333 1.333-3.333.667-3-2 .893 1.211 1.726 1.211 2.5 0-1.885-.697-2.218-1.697-1-3a29.144 29.144 0 0 1-5-2.5c1.333-2.333.667-3.333-2-3 1.196.654 1.196 1.154 0 1.5-2.538-2.359-1.871-3.859 2-4.5l-3.5-3.5c-1.241 1.921-2.741 2.254-4.5 1 2.607-4.334 1.774-7.667-2.5-10-.113-2.474-1.113-4.474-3-6l-1 1a6.978 6.978 0 0 0-2.5-3.5 3.647 3.647 0 0 0 1-1.5c-1.45-1.35-2.117-3.016-2-5a4.934 4.934 0 0 1-3-.5 20.64 20.64 0 0 1 6-2l-4-1c1.134-1.016.801-1.683-1-2l3-3c-1.036-1.617-2.203-1.784-3.5-.5.077-1.238-.089-2.238-.5-3-1.303 1.978-2.969 1.978-5 0a7.248 7.248 0 0 1 2-2.5c-.933-2.848-2.433-3.014-4.5-.5a38.472 38.472 0 0 1-4.5-9.5c.444-1.762.944-1.595 1.5.5l1.5-1.5c-1.141-.741-1.141-1.575 0-2.5a20.79 20.79 0 0 1-2.5-1c-.805 2.401-1.638 2.234-2.5-.5 1.134-1.016.801-1.683-1-2 .88-1.356 1.214-2.856 1-4.5a591.01 591.01 0 0 1-7 2.5c1.801-.317 2.134-.984 1-2a11.333 11.333 0 0 0 1.5-3.5c.667-1.333 1.333-1.333 2 0 2.562-1.398 2.895-3.065 1-5-1.676.561-3.009 1.561-4 3-1.047-2.999-3.213-4.499-6.5-4.5l4-1a8.905 8.905 0 0 1-4-3l2-1c-1.5-.833-2.667-2-3.5-3.5l-1 1a6.978 6.978 0 0 0-2.5-3.5 10.94 10.94 0 0 0 3-4.5c-2.633-1.04-4.966-1.873-7-2.5 2.667-.667 2.667-1.333 0-2 2.667-.667 2.667-1.333 0-2 2.493-1.583 2.326-3.083-.5-4.5-1.84 1.333-2.34 1.166-1.5-.5-.971-1.204-1.971-1.704-3-1.5a6.802 6.802 0 0 1 3-1.5c-1.897-1.11-3.73-1.276-5.5-.5-1.437-1.721-.937-3.221 1.5-4.5-.752-.671-1.086-1.504-1-2.5a130.23 130.23 0 0 1 16-21Z"/><path style="opacity:1" fill="#1f96ed" d="M906.5 412.5c-.086.996.248 1.829 1 2.5-2.437 1.279-2.937 2.779-1.5 4.5 1.77-.776 3.603-.61 5.5.5a6.802 6.802 0 0 0-3 1.5c1.029-.204 2.029.296 3 1.5-.84 1.666-.34 1.833 1.5.5 2.826 1.417 2.993 2.917.5 4.5 2.667.667 2.667 1.333 0 2 2.667.667 2.667 1.333 0 2 2.034.627 4.367 1.46 7 2.5a10.94 10.94 0 0 1-3 4.5 6.978 6.978 0 0 1 2.5 3.5l1-1c.833 1.5 2 2.667 3.5 3.5l-2 1a8.905 8.905 0 0 0 4 3l-4 1c3.287.001 5.453 1.501 6.5 4.5.991-1.439 2.324-2.439 4-3 1.895 1.935 1.562 3.602-1 5-.667-1.333-1.333-1.333-2 0a11.333 11.333 0 0 1-1.5 3.5c1.134 1.016.801 1.683-1 2a591.01 591.01 0 0 0 7-2.5c.214 1.644-.12 3.144-1 4.5 1.801.317 2.134.984 1 2 .862 2.734 1.695 2.901 2.5.5.92.43 1.753.764 2.5 1-1.141.925-1.141 1.759 0 2.5l-1.5 1.5c-.556-2.095-1.056-2.262-1.5-.5a38.472 38.472 0 0 0 4.5 9.5c2.067-2.514 3.567-2.348 4.5.5a7.248 7.248 0 0 0-2 2.5c2.031 1.978 3.697 1.978 5 0 .411.762.577 1.762.5 3 1.297-1.284 2.464-1.117 3.5.5l-3 3c1.801.317 2.134.984 1 2l4 1a20.64 20.64 0 0 0-6 2 4.934 4.934 0 0 0 3 .5c-.117 1.984.55 3.65 2 5a3.647 3.647 0 0 1-1 1.5 6.978 6.978 0 0 1 2.5 3.5l1-1c1.887 1.526 2.887 3.526 3 6 4.274 2.333 5.107 5.666 2.5 10 1.759 1.254 3.259.921 4.5-1l3.5 3.5c-3.871.641-4.538 2.141-2 4.5 1.196-.346 1.196-.846 0-1.5 2.667-.333 3.333.667 2 3a29.144 29.144 0 0 0 5 2.5c-1.218 1.303-.885 2.303 1 3-.774 1.211-1.607 1.211-2.5 0-.333 2.667.667 3.333 3 2 .595 1.399.428 2.732-.5 4 1.216.596 2.549.763 4 .5l-1 1a89.59 89.59 0 0 0 3 3.5v25c-1.879.107-2.212-.393-1-1.5a13.92 13.92 0 0 0-3-4l1-1c-3.044-.359-3.378-1.026-1-2l-3-1c.14-1.597.14-3.097 0-4.5-.59-1.299-1.59-2.132-3-2.5l1-1-3-1.5a157.898 157.898 0 0 1-6-10.5l1-1-3-1c.354-1.626.354-3.459 0-5.5-3.676-.034-4.843-1.701-3.5-5-.893 1.211-1.726 1.211-2.5 0a3.647 3.647 0 0 1 1-1.5 33.27 33.27 0 0 1-3.5-8.5c-.667 1.333-1.333 1.333-2 0-1.303-3.778-3.47-6.944-6.5-9.5l1-1c-3.12-2.408-4.453-5.574-4-9.5-2.861-.013-3.861-1.179-3-3.5a346.61 346.61 0 0 0-5-5c.551-1.398.884-2.732 1-4a162.075 162.075 0 0 1-12-17.5c.826-.951.992-1.951.5-3a20.499 20.499 0 0 1-3.5-2.5l1-1c-2.038-1.236-3.205-3.069-3.5-5.5l-1 2a29.517 29.517 0 0 0-2.5-4.5l1-1c-1.167-.5-2-1.333-2.5-2.5-1.666.84-1.833.34-.5-1.5a13.92 13.92 0 0 0-3-4c1.017-1.049 1.184-2.216.5-3.5l-1 2a40.393 40.393 0 0 0-7.5-13.5c.78-1.073.613-2.24-.5-3.5-1.22 2.357-2.053 2.024-2.5-1a90.081 90.081 0 0 1 9-13Z"/><path style="opacity:1" fill="#1c92ed" d="M897.5 425.5c.447 3.024 1.28 3.357 2.5 1 1.113 1.26 1.28 2.427.5 3.5a40.393 40.393 0 0 1 7.5 13.5l1-2c.684 1.284.517 2.451-.5 3.5a13.92 13.92 0 0 1 3 4c-1.333 1.84-1.166 2.34.5 1.5.5 1.167 1.333 2 2.5 2.5l-1 1a29.517 29.517 0 0 1 2.5 4.5l1-2c.295 2.431 1.462 4.264 3.5 5.5l-1 1a20.499 20.499 0 0 0 3.5 2.5c.492 1.049.326 2.049-.5 3a162.075 162.075 0 0 0 12 17.5c-.116 1.268-.449 2.602-1 4a346.61 346.61 0 0 1 5 5c-.861 2.321.139 3.487 3 3.5-.453 3.926.88 7.092 4 9.5l-1 1c3.03 2.556 5.197 5.722 6.5 9.5.667 1.333 1.333 1.333 2 0a33.27 33.27 0 0 0 3.5 8.5 3.647 3.647 0 0 0-1 1.5c.774 1.211 1.607 1.211 2.5 0-1.343 3.299-.176 4.966 3.5 5 .354 2.041.354 3.874 0 5.5l3 1-1 1a157.898 157.898 0 0 0 6 10.5l3 1.5-1 1c1.41.368 2.41 1.201 3 2.5.14 1.403.14 2.903 0 4.5l3 1c-2.378.974-2.044 1.641 1 2l-1 1a13.92 13.92 0 0 1 3 4c-1.212 1.107-.879 1.607 1 1.5v67c-1.522-.691-2.522-1.858-3-3.5.13-2.526.797-5.193 2-8-1.231-1.967-2.231-1.801-3 .5 1.315 1.395.981 2.395-1 3-1.231-1.151-1.231-2.317 0-3.5a30.326 30.326 0 0 1-6-7l1-1c-2.305-3.34-5.305-6.674-9-10l2-2a36.078 36.078 0 0 1-4.5-3.5c-.595-1.399-.428-2.732.5-4-.774-1.211-1.607-1.211-2.5 0-.492-1.049-.326-2.049.5-3a416.211 416.211 0 0 0-8-10 4.457 4.457 0 0 1 2-1.5c-4.481-.803-5.981-3.303-4.5-7.5l-1 1a6.978 6.978 0 0 0-3.5-2.5c-.309-3.615-1.976-6.948-5-10 .799-2.228-.201-3.561-3-4l1-1a29.017 29.017 0 0 1-4-5 4.457 4.457 0 0 0 2-1.5 15.69 15.69 0 0 0-4-2 30.786 30.786 0 0 1-5.5-12 6.978 6.978 0 0 0-3.5-2.5c1.333-1 1.333-2 0-3l3-1c-1.393-1.171-2.227-2.671-2.5-4.5-1.439-1.514-2.939-1.847-4.5-1-.539-2.666-1.872-4.833-4-6.5l1-1c-2.624-.576-3.291-1.91-2-4l-5-5 1-1c-1.349-.772-2.182-1.939-2.5-3.5l-1 1c-.621-4.578-2.454-7.744-5.5-9.5.675-2.242.175-4.409-1.5-6.5-.654 1.196-1.154 1.196-1.5 0 .502-1.216.835-2.383 1-3.5-.753-1.487-1.586-1.654-2.5-.5-2.21-1.683-2.71-3.683-1.5-6-.825-.886-1.825-1.219-3-1a4.934 4.934 0 0 0-.5-3c-2.757-2.033-4.924-4.533-6.5-7.5l2-1c-2.768-.708-3.601-2.208-2.5-4.5l-1 1-1-3c-.69 1.238-1.19 1.238-1.5 0 4.691-13.046 10.691-25.38 18-37Z"/><path style="opacity:1" fill="#fefefe" d="M862.5 528.5a4374.329 4374.329 0 0 1 1 129h-228v-117c1.677-33.187 15.01-60.687 40-82.5 43.231-33.254 88.565-36.254 136-9 28.214 19.251 45.214 45.751 51 79.5Zm252-94c22.08 4.706 41.41 14.706 58 30 16.46 16.911 27.12 36.911 32 60a231.32 231.32 0 0 1 .5 36c-1.33 8.14-3.16 16.14-5.5 24-.67 0-1 .333-1 1-15.79 37.243-43.45 60.41-83 69.5a68.79 68.79 0 0 1-15 1.5h-118v-123a92.648 92.648 0 0 1 6-28c5.185-12.693 12.18-24.36 21-35a212.445 212.445 0 0 1 27-22 140.684 140.684 0 0 1 33-13c14.89-3.56 29.89-3.893 45-1Z"/><path style="opacity:1" fill="#198bed" d="M876.5 470.5c.384 3.091.384 6.091 0 9 2.157.281 3.823 1.781 5 4.5l-2 1a6.978 6.978 0 0 1 3.5 2.5l1-1c.72 1.612.554 3.112-.5 4.5 2.347.846 4.18 2.346 5.5 4.5l1-2c.5 1.167 1.333 2 2.5 2.5l-2 1 4 4a11.38 11.38 0 0 1-2 2.5c-.506-2.75-1.84-2.584-4 .5 1.793 2.846 3.627 3.012 5.5.5 1.418 4.116 2.752 4.449 4 1-.246 2.882.754 5.549 3 8 2.203-.261 4.37.239 6.5 1.5l-6 1c2.538 1.171 3.038 2.671 1.5 4.5l-1-2c-.667 1.333-.667 2.667 0 4 2 .667 3.333 2 4 4 1-1.333 2-1.333 3 0 .743 1.941.576 3.774-.5 5.5a11.333 11.333 0 0 1 1.5 3.5 3.647 3.647 0 0 1 1.5-1c1.424 2.218 3.424 3.718 6 4.5-2.436 2.319-2.603 4.819-.5 7.5.967-1.178 1.467-2.511 1.5-4 1.771.535 2.104 1.369 1 2.5a13.315 13.315 0 0 0 3 4.5l-2 1c2.278.715 3.611 1.882 4 3.5-6.603-.578-6.603.089 0 2-.799 2.228.201 3.561 3 4a32.065 32.065 0 0 1-4 2.5l.5 1a34.474 34.474 0 0 1 6-1c2.024 2.292 1.69 2.959-1 2-.667 1-.667 2 0 3 1.388-1.054 2.888-1.22 4.5-.5-1.711 1.133-2.211 2.633-1.5 4.5 1.006-2.343 2.506-3.843 4.5-4.5a13.92 13.92 0 0 1-3 4c1.017 1.049 1.184 2.216.5 3.5-.556-2.095-1.056-2.262-1.5-.5 2.081 1.382 2.415 3.049 1 5l1 1.5c1.196-.346 1.196-.846 0-1.5 1.325.148 2.492-.018 3.5-.5.825 2.201.325 4.034-1.5 5.5 1.73 1.852 2.896 1.686 3.5-.5l1 1c-.965 5.416 1.201 9.249 6.5 11.5l-2 1a14.815 14.815 0 0 0 3 5.5c-1.54 1.032-2.04 2.365-1.5 4l1-1c.605 1.981 1.605 2.315 3 1l1.5 1.5-4 2c2.657 1.767 4.49.934 5.5-2.5l1 3c.654-1.196 1.154-1.196 1.5 0-1.211 1.22-1.211 2.387 0 3.5 1.932.138 3.766-.362 5.5-1.5a9.454 9.454 0 0 0 2.5 1.5c-2.28.233-4.28 1.066-6 2.5 2.237 1.862 2.903 4.029 2 6.5 1.608.658 2.775.158 3.5-1.5.667 1.333.667 2.667 0 4-.654-1.196-1.154-1.196-1.5 0a40.261 40.261 0 0 1 4 4.5c-2.024 1.458-2.191 3.291-.5 5.5l1-1a29.517 29.517 0 0 0 4.5 2.5c-1.771 2.113-3.271 1.947-4.5-.5a4.934 4.934 0 0 0-.5 3 116.097 116.097 0 0 1 9.5 4c.718-.951 1.551-1.117 2.5-.5l-4 3c2.378.974 2.044 1.641-1 2l4 2-3 1c.561 1.566-.106 2.899-2 4 2.547 1.316 3.213 3.149 2 5.5a4.457 4.457 0 0 0 1.5 2c1.432-1.939 3.265-3.272 5.5-4v47l-5-2a8.43 8.43 0 0 0-.5-4c-1.995-3.296-3.995-6.63-6-10-.667 1.333-1.333 1.333-2 0-.617-.949-.451-1.782.5-2.5a38.929 38.929 0 0 1-5-5.5c1.582-2.366 1.249-4.366-1-6 1.402-1.342 1.069-2.176-1-2.5l1-1a39.447 39.447 0 0 1-6-4.5c-1.211-1.22-1.211-2.387 0-3.5-.949-.617-1.782-.451-2.5.5-.193-2.966-.86-5.966-2-9-1.724 2.67-2.891 2.337-3.5-1 1.311-.758 1.811-1.758 1.5-3a3.647 3.647 0 0 1-1.5 1c-.602-3.379-2.602-5.212-6-5.5 3.149-.776 3.649-2.276 1.5-4.5l-1 1a14.72 14.72 0 0 0-1.5-5c-.824 2.248-1.824 2.414-3 .5 1.227-1.587.894-2.921-1-4 2.378-.974 2.044-1.641-1-2l1-1a69.2 69.2 0 0 1-4.5-6.5l-1 1c1.013-3.788-.487-6.288-4.5-7.5 1.247-1.494 1.247-2.994 0-4.5-3.496.978-3.83.144-1-2.5a20.499 20.499 0 0 0-3.5-2.5 109.922 109.922 0 0 1-6-13 9.454 9.454 0 0 0-2.5-1.5l1-1a18.924 18.924 0 0 1-5-3c2.667-.667 2.667-1.333 0-2 1.36-3.313.027-5.979-4-8l1-1-5-1c1.759-1.764 1.926-3.931.5-6.5l-1 1c-.199-1.902-1.033-3.402-2.5-4.5l2-1a34.099 34.099 0 0 0-6-3l2-1-4-2c2.528-1.017 2.528-2.184 0-3.5a3.647 3.647 0 0 1 1-1.5 499.122 499.122 0 0 0-6-6c2.488-1.685 2.155-3.019-1-4a3.647 3.647 0 0 0 1-1.5 90.11 90.11 0 0 0-6-6.5l1-1a44.742 44.742 0 0 1-5.5-9.5l-1 1c-1.113-1.26-1.28-2.427-.5-3.5a6.547 6.547 0 0 1-3-3c1.141-.741 1.141-1.575 0-2.5a14.72 14.72 0 0 0-5-1.5 4.457 4.457 0 0 0 2-1.5c-1.211-1.22-1.211-2.387 0-3.5a9.454 9.454 0 0 1-2.5-1.5 32.462 32.462 0 0 1-.5-8c1.774-11.767 4.774-23.1 9-34Z"/><path style="opacity:1" fill="#1986ee" d="M867.5 504.5a32.462 32.462 0 0 0 .5 8 9.454 9.454 0 0 0 2.5 1.5c-1.211 1.113-1.211 2.28 0 3.5a4.457 4.457 0 0 1-2 1.5 14.72 14.72 0 0 1 5 1.5c1.141.925 1.141 1.759 0 2.5a6.547 6.547 0 0 0 3 3c-.78 1.073-.613 2.24.5 3.5l1-1a44.742 44.742 0 0 0 5.5 9.5l-1 1a90.11 90.11 0 0 1 6 6.5 3.647 3.647 0 0 1-1 1.5c3.155.981 3.488 2.315 1 4a499.122 499.122 0 0 1 6 6 3.647 3.647 0 0 0-1 1.5c2.528 1.316 2.528 2.483 0 3.5l4 2-2 1a34.099 34.099 0 0 1 6 3l-2 1c1.467 1.098 2.301 2.598 2.5 4.5l1-1c1.426 2.569 1.259 4.736-.5 6.5l5 1-1 1c4.027 2.021 5.36 4.687 4 8 2.667.667 2.667 1.333 0 2a18.924 18.924 0 0 0 5 3l-1 1c.916.374 1.75.874 2.5 1.5a109.922 109.922 0 0 0 6 13 20.499 20.499 0 0 1 3.5 2.5c-2.83 2.644-2.496 3.478 1 2.5 1.247 1.506 1.247 3.006 0 4.5 4.013 1.212 5.513 3.712 4.5 7.5l1-1a69.2 69.2 0 0 0 4.5 6.5l-1 1c3.044.359 3.378 1.026 1 2 1.894 1.079 2.227 2.413 1 4 1.176 1.914 2.176 1.748 3-.5a14.72 14.72 0 0 1 1.5 5l1-1c2.149 2.224 1.649 3.724-1.5 4.5 3.398.288 5.398 2.121 6 5.5a3.647 3.647 0 0 0 1.5-1c.311 1.242-.189 2.242-1.5 3 .609 3.337 1.776 3.67 3.5 1 1.14 3.034 1.807 6.034 2 9 .718-.951 1.551-1.117 2.5-.5-1.211 1.113-1.211 2.28 0 3.5a39.447 39.447 0 0 0 6 4.5l-1 1c2.069.324 2.402 1.158 1 2.5 2.249 1.634 2.582 3.634 1 6a38.929 38.929 0 0 0 5 5.5c-.951.718-1.117 1.551-.5 2.5.667 1.333 1.333 1.333 2 0 2.005 3.37 4.005 6.704 6 10a8.43 8.43 0 0 1 .5 4l5 2v69h123c-40.83.999-81.83 1.332-123 1v6c-.904-.709-1.237-1.709-1-3-4.393.043-4.726-.457-1-1.5-1.333-.667-1.333-1.333 0-2-2.116-1.171-2.782-2.671-2-4.5a8.192 8.192 0 0 1-2.5-4c-2.109-.535-2.609-1.535-1.5-3a10.756 10.756 0 0 1-2.5-3l-1 1a11.532 11.532 0 0 0-4.5-3.5c2.503-1.549 2.503-3.216 0-5 1.134-1.016.801-1.683-1-2l3-1a11.333 11.333 0 0 1-3.5-1.5l-1 1v-4l-1 1-1-4-1 1a42.88 42.88 0 0 0-4.5-6.5l2-1-4-2c-.388-1.525-.388-3.192 0-5a4.934 4.934 0 0 0-3-.5 206.865 206.865 0 0 0-3-8 4.457 4.457 0 0 0-2-1.5c2.865-2.403 2.699-3.236-.5-2.5l-2-4c-.906 2.621-1.406 2.454-1.5-.5.255-1.326.922-2.326 2-3-.753-1.487-1.586-1.654-2.5-.5a7.293 7.293 0 0 1-2-3c-.984 2.295-1.817 1.961-2.5-1 .487-.946.82-1.946 1-3-3.226-6.137-6.893-11.304-11-15.5a975.735 975.735 0 0 1-5-14.5c-3.098.087-3.432-.413-1-1.5-3.098-1.268-4.765-3.601-5-7-3.283-3.826-5.783-7.66-7.5-11.5-1.243.836-2.41.503-3.5-1 .346-1.196.846-1.196 1.5 0 .667-1.667.667-3.333 0-5-1-1.333-2-1.333-3 0a22.981 22.981 0 0 0-2-5l-1 2a38.026 38.026 0 0 0-2.5-6.5l1-1c-1-1.667-2.333-3-4-4 1.658-.725 2.158-1.892 1.5-3.5l-1 1c-.39-2.949-1.89-5.116-4.5-6.5l1-1a6.978 6.978 0 0 1-3.5-2.5 289.482 289.482 0 0 1-6.5-13 6.802 6.802 0 0 0-3-1.5c3.736-1.507 3.736-2.34 0-2.5a8.43 8.43 0 0 0-.5-4l-1 1-3-7c-.654 1.196-1.154 1.196-1.5 0a4.457 4.457 0 0 1 2-1.5c-2.258-1.021-4.258-2.521-6-4.5.733-2.132.733-3.965 0-5.5a20.499 20.499 0 0 0-3.5-2.5c-.5 20.331-.667 40.664-.5 61v19h-1c.301-43.017-.033-86.017-1-129 .617-.111 1.117-.444 1.5-1a258.02 258.02 0 0 1 3.5-23Z"/><path style="opacity:1" fill="#1a8eed" d="M879.5 462.5c.31 1.238.81 1.238 1.5 0l1 3 1-1c-1.101 2.292-.268 3.792 2.5 4.5l-2 1c1.576 2.967 3.743 5.467 6.5 7.5.483.948.649 1.948.5 3 1.175-.219 2.175.114 3 1-1.21 2.317-.71 4.317 1.5 6 .914-1.154 1.747-.987 2.5.5-.165 1.117-.498 2.284-1 3.5.346 1.196.846 1.196 1.5 0 1.675 2.091 2.175 4.258 1.5 6.5 3.046 1.756 4.879 4.922 5.5 9.5l1-1c.318 1.561 1.151 2.728 2.5 3.5l-1 1 5 5c-1.291 2.09-.624 3.424 2 4l-1 1c2.128 1.667 3.461 3.834 4 6.5 1.561-.847 3.061-.514 4.5 1 .273 1.829 1.107 3.329 2.5 4.5l-3 1c1.333 1 1.333 2 0 3a6.978 6.978 0 0 1 3.5 2.5 30.786 30.786 0 0 0 5.5 12 15.69 15.69 0 0 1 4 2 4.457 4.457 0 0 1-2 1.5 29.017 29.017 0 0 0 4 5l-1 1c2.799.439 3.799 1.772 3 4 3.024 3.052 4.691 6.385 5 10a6.978 6.978 0 0 1 3.5 2.5l1-1c-1.481 4.197.019 6.697 4.5 7.5a4.457 4.457 0 0 0-2 1.5c2.673 3.236 5.34 6.57 8 10-.826.951-.992 1.951-.5 3 .893-1.211 1.726-1.211 2.5 0-.928 1.268-1.095 2.601-.5 4a36.078 36.078 0 0 0 4.5 3.5l-2 2c3.695 3.326 6.695 6.66 9 10l-1 1a30.326 30.326 0 0 0 6 7c-1.231 1.183-1.231 2.349 0 3.5 1.981-.605 2.315-1.605 1-3 .769-2.301 1.769-2.467 3-.5-1.203 2.807-1.87 5.474-2 8 .478 1.642 1.478 2.809 3 3.5v21c-2.235.728-4.068 2.061-5.5 4a4.457 4.457 0 0 1-1.5-2c1.213-2.351.547-4.184-2-5.5 1.894-1.101 2.561-2.434 2-4l3-1-4-2c3.044-.359 3.378-1.026 1-2l4-3c-.949-.617-1.782-.451-2.5.5a116.097 116.097 0 0 0-9.5-4 4.934 4.934 0 0 1 .5-3c1.229 2.447 2.729 2.613 4.5.5a29.517 29.517 0 0 1-4.5-2.5l-1 1c-1.691-2.209-1.524-4.042.5-5.5a40.261 40.261 0 0 0-4-4.5c.346-1.196.846-1.196 1.5 0 .667-1.333.667-2.667 0-4-.725 1.658-1.892 2.158-3.5 1.5.903-2.471.237-4.638-2-6.5 1.72-1.434 3.72-2.267 6-2.5a9.454 9.454 0 0 1-2.5-1.5c-1.734 1.138-3.568 1.638-5.5 1.5-1.211-1.113-1.211-2.28 0-3.5-.346-1.196-.846-1.196-1.5 0l-1-3c-1.01 3.434-2.843 4.267-5.5 2.5l4-2-1.5-1.5c-1.395 1.315-2.395.981-3-1l-1 1c-.54-1.635-.04-2.968 1.5-4a14.815 14.815 0 0 1-3-5.5l2-1c-5.299-2.251-7.465-6.084-6.5-11.5l-1-1c-.604 2.186-1.77 2.352-3.5.5 1.825-1.466 2.325-3.299 1.5-5.5-1.008.482-2.175.648-3.5.5 1.196.654 1.196 1.154 0 1.5l-1-1.5c1.415-1.951 1.081-3.618-1-5 .444-1.762.944-1.595 1.5.5.684-1.284.517-2.451-.5-3.5a13.92 13.92 0 0 0 3-4c-1.994.657-3.494 2.157-4.5 4.5-.711-1.867-.211-3.367 1.5-4.5-1.612-.72-3.112-.554-4.5.5-.667-1-.667-2 0-3 2.69.959 3.024.292 1-2a34.474 34.474 0 0 0-6 1l-.5-1a32.065 32.065 0 0 0 4-2.5c-2.799-.439-3.799-1.772-3-4-6.603-1.911-6.603-2.578 0-2-.389-1.618-1.722-2.785-4-3.5l2-1a13.315 13.315 0 0 1-3-4.5c1.104-1.131.771-1.965-1-2.5-.033 1.489-.533 2.822-1.5 4-2.103-2.681-1.936-5.181.5-7.5-2.576-.782-4.576-2.282-6-4.5a3.647 3.647 0 0 0-1.5 1 11.333 11.333 0 0 0-1.5-3.5c1.076-1.726 1.243-3.559.5-5.5-1-1.333-2-1.333-3 0-.667-2-2-3.333-4-4-.667-1.333-.667-2.667 0-4l1 2c1.538-1.829 1.038-3.329-1.5-4.5l6-1c-2.13-1.261-4.297-1.761-6.5-1.5-2.246-2.451-3.246-5.118-3-8-1.248 3.449-2.582 3.116-4-1-1.873 2.512-3.707 2.346-5.5-.5 2.16-3.084 3.494-3.25 4-.5a11.38 11.38 0 0 0 2-2.5l-4-4 2-1c-1.167-.5-2-1.333-2.5-2.5l-1 2c-1.32-2.154-3.153-3.654-5.5-4.5 1.054-1.388 1.22-2.888.5-4.5l-1 1a6.978 6.978 0 0 0-3.5-2.5l2-1c-1.177-2.719-2.843-4.219-5-4.5.384-2.909.384-5.909 0-9 .629-2.897 1.629-5.564 3-8Z"/><path style="opacity:1" fill="#35b9ec" d="M1204.5 524.5c1.25.077 2.08.744 2.5 2 .33-.667.67-1.333 1-2 .35 1.718.85 3.385 1.5 5 2.57 1.306 3.57 3.139 3 5.5 6.07 7.92 10.9 16.087 14.5 24.5 2.23 1.978 3.4 4.145 3.5 6.5a64.749 64.749 0 0 1 8 11 7.32 7.32 0 0 1-3 2c1.44.219 2.77.719 4 1.5 1.68 1.228 2.01 2.561 1 4h-41c2.34-7.86 4.17-15.86 5.5-24 .77-12.033.6-24.033-.5-36Z"/><path style="opacity:1" fill="#1381ee" d="M981.5 781.5v57a37.829 37.829 0 0 0-4-3.5c-.1-2.355-1.267-4.522-3.5-6.5a429.95 429.95 0 0 0-10-19c-.914 1.154-1.747.987-2.5-.5.837-1.011 1.17-2.178 1-3.5-4.084.555-4.751-.445-2-3l-3-2.5v-3c-2.984-4.286-5.984-8.62-9-13l1-1-4-3a3.647 3.647 0 0 0 1-1.5c-1.96-1.791-3.293-3.957-4-6.5l2-1-4-2c2.793-2.734 2.459-3.734-1-3 2.786-2.021 2.453-3.521-1-4.5.826-.951.992-1.951.5-3l-3 1c-3.478-3.345-3.145-4.345 1-3 2.042-2.01 1.709-3.676-1-5-1.204.971-1.704 1.971-1.5 3-2.48-.915-3.147-2.415-2-4.5a11.333 11.333 0 0 1-1.5-3.5c-.654 1.196-1.154 1.196-1.5 0a7.248 7.248 0 0 1 2-2.5c-1.807-1.236-3.807-1.57-6-1 .837-1.011 1.17-2.178 1-3.5a4.934 4.934 0 0 0 3-.5c-1.638-.242-3.138-1.075-4.5-2.5a32.613 32.613 0 0 0-8.5-11.5c1.049-.492 2.049-.326 3 .5 1.021-.502 1.188-1.168.5-2-.667-1.333-1.333-1.333-2 0-.318-1.561-1.151-2.728-2.5-3.5.951-.718 1.117-1.551.5-2.5-.718.951-1.551 1.117-2.5.5-2.87-2.857-4.87-6.19-6-10l2-1c-1.984-1.803-3.984-2.803-6-3l1-1a1690.697 1690.697 0 0 0-7-11c5.25-2.979 5.25-4.812 0-5.5.825-.886 1.825-1.219 3-1 .087-3.098-.413-3.432-1.5-1-.667-1.333-1.333-1.333-2 0a4.934 4.934 0 0 0-.5 3c-2.442.381-3.109-.286-2-2a20.225 20.225 0 0 0-3-4.5l.5-1.5c.423 1.456 1.256 1.956 2.5 1.5-2.013-1.791-2.013-3.125 0-4-2.667-.667-2.667-1.333 0-2-1.522-1.328-3.189-1.162-5 .5-1.771-.535-2.104-1.369-1-2.5-2.491-.626-2.491-1.459 0-2.5-1.669-2.284-3.669-3.118-6-2.5 1.134-1.016.801-1.683-1-2 3.021-.849 3.521-2.349 1.5-4.5-.718.951-1.551 1.117-2.5.5l1-3c-2.008-3.145-3.674-5.979-5-8.5a6.802 6.802 0 0 0-1.5 3 8.192 8.192 0 0 0-2.5-4c1.54-1.032 2.04-2.365 1.5-4l-1 2a11.333 11.333 0 0 0-3.5-1.5c2.013-.875 2.013-2.209 0-4 1.711-1.133 2.211-2.633 1.5-4.5l-1 2c-.667-5.333-1.333-5.333-2 0-1.011-.837-2.178-1.17-3.5-1-.167-20.336 0-40.669.5-61a20.499 20.499 0 0 1 3.5 2.5c.733 1.535.733 3.368 0 5.5 1.742 1.979 3.742 3.479 6 4.5a4.457 4.457 0 0 0-2 1.5c.346 1.196.846 1.196 1.5 0l3 7 1-1a8.43 8.43 0 0 1 .5 4c3.736.16 3.736.993 0 2.5a6.802 6.802 0 0 1 3 1.5 289.482 289.482 0 0 0 6.5 13 6.978 6.978 0 0 0 3.5 2.5l-1 1c2.61 1.384 4.11 3.551 4.5 6.5l1-1c.658 1.608.158 2.775-1.5 3.5 1.667 1 3 2.333 4 4l-1 1a38.026 38.026 0 0 1 2.5 6.5l1-2a22.981 22.981 0 0 1 2 5c1-1.333 2-1.333 3 0 .667 1.667.667 3.333 0 5-.654-1.196-1.154-1.196-1.5 0 1.09 1.503 2.257 1.836 3.5 1 1.717 3.84 4.217 7.674 7.5 11.5.235 3.399 1.902 5.732 5 7-2.432 1.087-2.098 1.587 1 1.5a975.735 975.735 0 0 0 5 14.5c4.107 4.196 7.774 9.363 11 15.5a10.305 10.305 0 0 1-1 3c.683 2.961 1.516 3.295 2.5 1a7.293 7.293 0 0 0 2 3c.914-1.154 1.747-.987 2.5.5-1.078.674-1.745 1.674-2 3 .094 2.954.594 3.121 1.5.5l2 4c3.199-.736 3.365.097.5 2.5a4.457 4.457 0 0 1 2 1.5 206.865 206.865 0 0 1 3 8 4.934 4.934 0 0 1 3 .5c-.388 1.808-.388 3.475 0 5l4 2-2 1a42.88 42.88 0 0 1 4.5 6.5l1-1 1 4 1-1v4l1-1a11.333 11.333 0 0 0 3.5 1.5l-3 1c1.801.317 2.134.984 1 2 2.503 1.784 2.503 3.451 0 5a11.532 11.532 0 0 1 4.5 3.5l1-1a10.756 10.756 0 0 0 2.5 3c-1.109 1.465-.609 2.465 1.5 3a8.192 8.192 0 0 0 2.5 4c-.782 1.829-.116 3.329 2 4.5-1.333.667-1.333 1.333 0 2-3.726 1.043-3.393 1.543 1 1.5-.237 1.291.096 2.291 1 3Z"/><path style="opacity:1" fill="#1c84e9" d="M1198.5 585.5c0-.667.33-1 1-1h121c.24 1.291-.1 2.291-1 3-39.99-1.994-80.32-2.661-121-2Z"/><path style="opacity:1" fill="#0049e7" d="M1198.5 585.5c40.68-.661 81.01.006 121 2-13.5 65.977-48.5 117.144-105 153.5-33.71 20.736-70.38 31.903-110 33.5h-123v-117c39.84.332 79.5-.001 119-1 5.05.05 10.05-.45 15-1.5 39.55-9.09 67.21-32.257 83-69.5Z"/><path style="opacity:1" fill="#117dee" d="M981.5 838.5v23a16.58 16.58 0 0 0-4-2.5c1.211-1.113 1.211-2.28 0-3.5-3.409-6.036-7.409-12.203-12-18.5-3.841-9.466-8.841-18.133-15-26l1-1c-2.107-1.264-3.107-3.097-3-5.5-2.442.146-3.109-.687-2-2.5-2.167-3.453-4.001-6.62-5.5-9.5l-1 1c-1.121-4.628-3.621-8.795-7.5-12.5l1-1-3-5 2-2a39.027 39.027 0 0 1-4.5-4.5c-1.666.84-1.833.34-.5-1.5-.753-1.487-1.586-1.654-2.5-.5-1.779-1.517-1.279-2.351 1.5-2.5a13.92 13.92 0 0 0-3-4l1-1c-2.223-.652-3.39-2.152-3.5-4.5-.317 1.801-.984 2.134-2 1a29.517 29.517 0 0 0-2.5-4.5c1.134-1.016.801-1.683-1-2 2.378-.974 2.044-1.641-1-2 1.456-.423 1.956-1.256 1.5-2.5l-1 1c-2.405-2.201-4.238-4.201-5.5-6a3.647 3.647 0 0 1 1-1.5l-4-4c1.898-1.978 1.232-3.645-2-5 .566-2.361-.434-4.194-3-5.5-2.025-5.522-4.358-10.522-7-15a6.802 6.802 0 0 0-3-1.5l1-1a36.741 36.741 0 0 1-7-10 3.647 3.647 0 0 0 1-1.5 32.364 32.364 0 0 0-4-5.5l1-1a48.165 48.165 0 0 1-5-2.5c1.103-.498 2.103-.831 3-1a10.258 10.258 0 0 0-4-1.5l2-1c-1.693-1.713-3.026-3.713-4-6l1-1-3-1c.951-.718 1.117-1.551.5-2.5-1.757.367-3.257-.466-4.5-2.5 2.405-2.032 1.905-3.532-1.5-4.5l-1-5c-.671-.752-1.504-1.086-2.5-1v-20c1.322-.17 2.489.163 3.5 1 .667-5.333 1.333-5.333 2 0l1-2c.711 1.867.211 3.367-1.5 4.5 2.013 1.791 2.013 3.125 0 4 1.266.309 2.433.809 3.5 1.5l1-2c.54 1.635.04 2.968-1.5 4a8.192 8.192 0 0 1 2.5 4 6.802 6.802 0 0 1 1.5-3c1.326 2.521 2.992 5.355 5 8.5l-1 3c.949.617 1.782.451 2.5-.5 2.021 2.151 1.521 3.651-1.5 4.5 1.801.317 2.134.984 1 2 2.331-.618 4.331.216 6 2.5-2.491 1.041-2.491 1.874 0 2.5-1.104 1.131-.771 1.965 1 2.5 1.811-1.662 3.478-1.828 5-.5-2.667.667-2.667 1.333 0 2-2.013.875-2.013 2.209 0 4-1.244.456-2.077-.044-2.5-1.5l-.5 1.5a20.225 20.225 0 0 1 3 4.5c-1.109 1.714-.442 2.381 2 2a4.934 4.934 0 0 1 .5-3c.667-1.333 1.333-1.333 2 0 1.087-2.432 1.587-2.098 1.5 1-1.175-.219-2.175.114-3 1 5.25.688 5.25 2.521 0 5.5 2.329 3.629 4.663 7.296 7 11l-1 1c2.016.197 4.016 1.197 6 3l-2 1c1.13 3.81 3.13 7.143 6 10 .949.617 1.782.451 2.5-.5.617.949.451 1.782-.5 2.5 1.349.772 2.182 1.939 2.5 3.5.667-1.333 1.333-1.333 2 0 .688.832.521 1.498-.5 2-.951-.826-1.951-.992-3-.5a32.613 32.613 0 0 1 8.5 11.5c1.362 1.425 2.862 2.258 4.5 2.5a4.934 4.934 0 0 1-3 .5c.17 1.322-.163 2.489-1 3.5 2.193-.57 4.193-.236 6 1a7.248 7.248 0 0 0-2 2.5c.346 1.196.846 1.196 1.5 0a11.333 11.333 0 0 0 1.5 3.5c-1.147 2.085-.48 3.585 2 4.5-.204-1.029.296-2.029 1.5-3 2.709 1.324 3.042 2.99 1 5-4.145-1.345-4.478-.345-1 3l3-1c.492 1.049.326 2.049-.5 3 3.453.979 3.786 2.479 1 4.5 3.459-.734 3.793.266 1 3l4 2-2 1c.707 2.543 2.04 4.709 4 6.5a3.647 3.647 0 0 1-1 1.5l4 3-1 1c3.016 4.38 6.016 8.714 9 13v3l3 2.5c-2.751 2.555-2.084 3.555 2 3 .17 1.322-.163 2.489-1 3.5.753 1.487 1.586 1.654 2.5.5a429.95 429.95 0 0 1 10 19c2.233 1.978 3.4 4.145 3.5 6.5a37.829 37.829 0 0 1 4 3.5Z"/><path style="opacity:1" fill="#deebfc" d="M982.5 533.5v123h118c-39.5.999-79.16 1.332-119 1v-112c-.317-4.202.017-8.202 1-12Z"/><path style="opacity:1" fill="#1e85ef" d="M408.5 657.5a177.731 177.731 0 0 0 7 9.5c.324 4.868 2.991 9.201 8 13-1.017 1.049-1.184 2.216-.5 3.5 2.551 2.081 3.885 4.414 4 7 .914-1.154 1.747-.987 2.5.5-.108 4.576 1.892 8.243 6 11l-1 1c3.676 4.89 6.343 9.89 8 15 7.36 11.934 14.193 23.767 20.5 35.5l3 4 1-1c-.63 3.606.87 6.272 4.5 8a3.647 3.647 0 0 1-1 1.5c2.749 2.721 4.416 5.555 5 8.5h-32a37.829 37.829 0 0 1-3.5-4l-1 1a54.94 54.94 0 0 0-4.5-8c.782-1.829.116-3.329-2-4.5 1.154-.914.987-1.747-.5-2.5l-1 1c-3.664-7.248-7.497-13.748-11.5-19.5 1.017-1.049 1.184-2.216.5-3.5l-1 2c-2.755-5.944-5.922-11.11-9.5-15.5 3.726-1.043 3.393-1.543-1-1.5a86.77 86.77 0 0 0-11-20.5l2-1c-1.544-.29-2.877-.956-4-2l1-1c-2.786-2.37-3.62-5.204-2.5-8.5a7.293 7.293 0 0 0-2 3 47.653 47.653 0 0 1-5-12c-1.697-.864-2.863-2.197-3.5-4 .548-2.041.715-4.374.5-7-1.254 3.774-2.754 4.274-4.5 1.5 1.134-1.016.801-1.683-1-2 1.134-1.016.801-1.683-1-2 1.017-1.049 1.184-2.216.5-3.5-1.461 1.383-2.294 1.049-2.5-1 10.784-1.703 21.784-2.37 33-2Z"/><path style="opacity:1" fill="#1a80ef" d="M408.5 657.5h61c2.864 2.692 4.698 5.692 5.5 9 1.016 1.134 1.683.801 2-1 1.852 1.73 1.686 2.896-.5 3.5a29.517 29.517 0 0 1 2.5 4.5c1.666-.84 1.833-.34.5 1.5 1.5 2.167 3.333 4 5.5 5.5v4a23.65 23.65 0 0 0 3.5 3 3.647 3.647 0 0 1-1 1.5l4 4-1 1a281.403 281.403 0 0 0 15 23c-.951.718-1.117 1.551-.5 2.5 1.32 2.154 3.153 3.654 5.5 4.5l-2 1c1.282 3.242 3.282 5.909 6 8-.736 2.021.097 3.521 2.5 4.5.496-4.205 2.163-4.871 5-2 1.491 2.629 2.657 5.462 3.5 8.5-1.507.837-2.007 2.004-1.5 3.5a20.431 20.431 0 0 0 5.5 1.5l-2 1c1.658.725 2.158 1.892 1.5 3.5-.556-2.095-1.056-2.262-1.5-.5.598 1.301 1.598 2.135 3 2.5 1.109-1.09 2.109-1.09 3 0-1.333 1.333-1.333 2.667 0 4 1.804 1.216 3.471 2.216 5 3-1.082.249-2.415.415-4 .5a22.981 22.981 0 0 0 5 2 7.293 7.293 0 0 0-3 2 34.099 34.099 0 0 1 6 3c-8.235.904-16.568 1.737-25 2.5v2h-42c-.584-2.945-2.251-5.779-5-8.5a3.647 3.647 0 0 0 1-1.5c-3.63-1.728-5.13-4.394-4.5-8l-1 1-3-4c-6.307-11.733-13.14-23.566-20.5-35.5-1.657-5.11-4.324-10.11-8-15l1-1c-4.108-2.757-6.108-6.424-6-11-.753-1.487-1.586-1.654-2.5-.5-.115-2.586-1.449-4.919-4-7-.684-1.284-.517-2.451.5-3.5-5.009-3.799-7.676-8.132-8-13a177.731 177.731 0 0 1-7-9.5Z"/><path style="opacity:1" fill="#157af1" d="M469.5 657.5h68c-1.184 1.188-1.184 2.355 0 3.5a48.493 48.493 0 0 1 7 4.5 4.457 4.457 0 0 0 1.5-2c.445 2.094-.388 3.594-2.5 4.5 2.823 1.094 4.656 3.594 5.5 7.5.451-2.429 1.285-2.596 2.5-.5-.958 1.147-.625 2.147 1 3a4.457 4.457 0 0 0-2 1.5c1.029-.204 2.029.296 3 1.5l-2 1c2.167.833 3.667 2.333 4.5 4.5 4.444-2.508 4.611-2.008.5 1.5a7.293 7.293 0 0 0 3 2 3.647 3.647 0 0 0-1 1.5 28.043 28.043 0 0 1 1.5 5c.424-3.69 1.258-3.857 2.5-.5l-2 2c1.601.273 3.101.773 4.5 1.5-1.101 2.292-.268 3.792 2.5 4.5-1.209 3.025-.709 5.859 1.5 8.5.451-2.429 1.285-2.596 2.5-.5l-1 1c4.878-1.031 5.211-.031 1 3a9.454 9.454 0 0 1 1.5 2.5c2.129-1.363 2.629-1.029 1.5 1 2.459 1.55 3.126 3.55 2 6 2.377 1.353 4.71 1.853 7 1.5a7.248 7.248 0 0 0-2 2.5c1.333 1 1.333 2 0 3 .569 2.737 2.236 4.237 5 4.5l-3 1c1.405 1.269 3.071 1.769 5 1.5-.17 1.322.163 2.489 1 3.5l-2 1c1.333.667 1.333 1.333 0 2 2.822 3.437 6.155 6.437 10 9v5c.755 2.133 2.088 3.8 4 5l-2 1c2.099 1.682 3.432 3.348 4 5-15.505.169-30.839.669-46 1.5h-40c8.432-.763 16.765-1.596 25-2.5a34.099 34.099 0 0 0-6-3 7.293 7.293 0 0 1 3-2 22.981 22.981 0 0 1-5-2c1.585-.085 2.918-.251 4-.5-1.529-.784-3.196-1.784-5-3-1.333-1.333-1.333-2.667 0-4-.891-1.09-1.891-1.09-3 0-1.402-.365-2.402-1.199-3-2.5.444-1.762.944-1.595 1.5.5.658-1.608.158-2.775-1.5-3.5l2-1a20.431 20.431 0 0 1-5.5-1.5c-.507-1.496-.007-2.663 1.5-3.5-.843-3.038-2.009-5.871-3.5-8.5-2.837-2.871-4.504-2.205-5 2-2.403-.979-3.236-2.479-2.5-4.5-2.718-2.091-4.718-4.758-6-8l2-1c-2.347-.846-4.18-2.346-5.5-4.5-.617-.949-.451-1.782.5-2.5a281.403 281.403 0 0 1-15-23l1-1-4-4a3.647 3.647 0 0 0 1-1.5 23.65 23.65 0 0 1-3.5-3v-4c-2.167-1.5-4-3.333-5.5-5.5 1.333-1.84 1.166-2.34-.5-1.5a29.517 29.517 0 0 0-2.5-4.5c2.186-.604 2.352-1.77.5-3.5-.317 1.801-.984 2.134-2 1-.802-3.308-2.636-6.308-5.5-9Z"/><path style="opacity:1" fill="#1073f1" d="M537.5 657.5h54c.077 1.25.744 2.083 2 2.5-2.501 1.418-2.168 2.418 1 3-1.211.893-1.211 1.726 0 2.5a10.258 10.258 0 0 0 1.5-4c.667 2 .667 4 0 6-.718-.951-1.551-1.117-2.5-.5l4 4-2 1 4 2a23.162 23.162 0 0 0 4.5 6.5c.617.949.451 1.782-.5 2.5 2.695 1.416 3.361 3.416 2 6 2.179.442 2.845 1.442 2 3h4c-.837 1.011-1.17 2.178-1 3.5 3.949.193 3.949.693 0 1.5 2.984 1.268 3.984 3.268 3 6l4 2c1.187 3.965 3.521 7.631 7 11l-2 1a16.661 16.661 0 0 1 4 4c-2.378.974-2.044 1.641 1 2-.561 1.566.106 2.899 2 4l-1 1c2.177 1.773 4.01 3.939 5.5 6.5.5 12.662.667 25.329.5 38h-77a1049.474 1049.474 0 0 1 46-1.5c-.568-1.652-1.901-3.318-4-5l2-1c-1.912-1.2-3.245-2.867-4-5v-5c-3.845-2.563-7.178-5.563-10-9 1.333-.667 1.333-1.333 0-2l2-1c-.837-1.011-1.17-2.178-1-3.5-1.929.269-3.595-.231-5-1.5l3-1c-2.764-.263-4.431-1.763-5-4.5 1.333-1 1.333-2 0-3a7.248 7.248 0 0 1 2-2.5c-2.29.353-4.623-.147-7-1.5 1.126-2.45.459-4.45-2-6 1.129-2.029.629-2.363-1.5-1a9.454 9.454 0 0 0-1.5-2.5c4.211-3.031 3.878-4.031-1-3l1-1c-1.215-2.096-2.049-1.929-2.5.5-2.209-2.641-2.709-5.475-1.5-8.5-2.768-.708-3.601-2.208-2.5-4.5a15.256 15.256 0 0 0-4.5-1.5l2-2c-1.242-3.357-2.076-3.19-2.5.5a28.043 28.043 0 0 0-1.5-5 3.647 3.647 0 0 1 1-1.5 7.293 7.293 0 0 1-3-2c4.111-3.508 3.944-4.008-.5-1.5-.833-2.167-2.333-3.667-4.5-4.5l2-1c-.971-1.204-1.971-1.704-3-1.5a4.457 4.457 0 0 1 2-1.5c-1.625-.853-1.958-1.853-1-3-1.215-2.096-2.049-1.929-2.5.5-.844-3.906-2.677-6.406-5.5-7.5 2.112-.906 2.945-2.406 2.5-4.5a4.457 4.457 0 0 1-1.5 2 48.493 48.493 0 0 0-7-4.5c-1.184-1.145-1.184-2.312 0-3.5Z"/><path style="opacity:1" fill="#126ef0" d="M635.5 540.5v117c.332 38.504-.001 76.837-1 115 .167-12.671 0-25.338-.5-38-1.49-2.561-3.323-4.727-5.5-6.5l1-1c-1.894-1.101-2.561-2.434-2-4-3.044-.359-3.378-1.026-1-2a16.661 16.661 0 0 0-4-4l2-1c-3.479-3.369-5.813-7.035-7-11l-4-2c.984-2.732-.016-4.732-3-6 3.949-.807 3.949-1.307 0-1.5-.17-1.322.163-2.489 1-3.5h-4c.845-1.558.179-2.558-2-3 1.361-2.584.695-4.584-2-6 .951-.718 1.117-1.551.5-2.5a23.162 23.162 0 0 1-4.5-6.5l-4-2 2-1-4-4c.949-.617 1.782-.451 2.5.5.667-2 .667-4 0-6a10.258 10.258 0 0 1-1.5 4c-1.211-.774-1.211-1.607 0-2.5-3.168-.582-3.501-1.582-1-3-1.256-.417-1.923-1.25-2-2.5h43c-.332-39.17.001-78.17 1-117Z"/><path style="opacity:1" fill="#0149e7" d="M635.5 657.5h228v117c-76.168-.333-152.168.001-228 1-.167 39.668 0 79.335.5 119 5.977 48.119 31.477 80.786 76.5 98v121a466.408 466.408 0 0 1-19-3c-45.19-11.92-83.523-35.09-115-69.5-.937-.69-1.603-.53-2 .5-55.859 58.57-124.192 83.4-205 74.5-74.473-12.53-130.973-51.03-169.5-115.5a230.928 230.928 0 0 1-22.5-56c.247-1.213.914-1.88 2-2 41.339-.333 82.672 0 124 1 12.867 22.874 31.534 38.874 56 48 1.28 1.431 2.947 2.098 5 2 3.005 1.777 6.338 2.777 10 3 1.068.934 2.401 1.268 4 1 3.71 1.636 7.71 2.302 12 2 47.456 2.96 83.956-15.378 109.5-55 8.005-14.35 13.005-29.683 15-46 .5-40.999.667-81.999.5-123v-3h117a3305.294 3305.294 0 0 0 1-115Z"/><path style="opacity:1" fill="#1079ee" d="M864.5 658.5c.996-.086 1.829.248 2.5 1l1 5c3.405.968 3.905 2.468 1.5 4.5 1.243 2.034 2.743 2.867 4.5 2.5.617.949.451 1.782-.5 2.5l3 1-1 1c.974 2.287 2.307 4.287 4 6l-2 1c1.438.219 2.771.719 4 1.5-.897.169-1.897.502-3 1a48.165 48.165 0 0 0 5 2.5l-1 1a32.364 32.364 0 0 1 4 5.5 3.647 3.647 0 0 1-1 1.5 36.741 36.741 0 0 0 7 10l-1 1a6.802 6.802 0 0 1 3 1.5c2.642 4.478 4.975 9.478 7 15 2.566 1.306 3.566 3.139 3 5.5 3.232 1.355 3.898 3.022 2 5l4 4a3.647 3.647 0 0 0-1 1.5c1.262 1.799 3.095 3.799 5.5 6l1-1c.456 1.244-.044 2.077-1.5 2.5 3.044.359 3.378 1.026 1 2 1.801.317 2.134.984 1 2a29.517 29.517 0 0 1 2.5 4.5c1.016 1.134 1.683.801 2-1 .11 2.348 1.277 3.848 3.5 4.5l-1 1a13.92 13.92 0 0 1 3 4c-2.779.149-3.279.983-1.5 2.5.914-1.154 1.747-.987 2.5.5-1.333 1.84-1.166 2.34.5 1.5a39.027 39.027 0 0 0 4.5 4.5l-2 2 3 5-1 1c3.879 3.705 6.379 7.872 7.5 12.5l1-1c1.499 2.88 3.333 6.047 5.5 9.5-1.109 1.813-.442 2.646 2 2.5-.107 2.403.893 4.236 3 5.5l-1 1c6.159 7.867 11.159 16.534 15 26 4.591 6.297 8.591 12.464 12 18.5 1.211 1.22 1.211 2.387 0 3.5a16.58 16.58 0 0 1 4 2.5c.167 14.337 0 28.671-.5 43-.324 7.932-1.491 15.599-3.5 23-8.654-17.219-17.988-33.386-28-48.5l1-1c-2.04-2.185-3.374-4.685-4-7.5a4.934 4.934 0 0 1-3-.5l1-1a29.517 29.517 0 0 1-2.5-4.5c-1.666.84-1.833.34-.5-1.5-2.193-3.347-4.359-7.18-6.5-11.5-1-1.333-2-1.333-3 0-.667-1-.667-2 0-3 .654 1.196 1.154 1.196 1.5 0a833.386 833.386 0 0 1-16-28 6.802 6.802 0 0 0-3-1.5 3.647 3.647 0 0 0 1-1.5c-2.005-4.34-5.005-7.84-9-10.5.976-2.147.809-4.314-.5-6.5a66.06 66.06 0 0 1-5-8l-1 1c-1.713-5.776-4.379-11.443-8-17-3.097-.789-3.264-1.956-.5-3.5-2.404-.508-3.071-1.675-2-3.5a10.258 10.258 0 0 0-4-1.5c.928-.388 1.595-1.055 2-2-.982-1.054-2.149-1.554-3.5-1.5-.72-1.612-.554-3.112.5-4.5-1.827-.899-3.16-2.233-4-4 .392-1.011 1.059-1.511 2-1.5a19.887 19.887 0 0 0-4-3.5l1-1c-3.254-2.342-5.088-5.509-5.5-9.5-1.193 1.943-2.693 1.776-4.5-.5a4.457 4.457 0 0 0 2-1.5 22.567 22.567 0 0 1-3.5-5l-1 2a17.65 17.65 0 0 1 .5-6h-3v-71Z"/><path style="opacity:1" fill="#2188ef" d="M375.5 659.5c.206 2.049 1.039 2.383 2.5 1 .684 1.284.517 2.451-.5 3.5 1.801.317 2.134.984 1 2 1.801.317 2.134.984 1 2 1.746 2.774 3.246 2.274 4.5-1.5.215 2.626.048 4.959-.5 7 .637 1.803 1.803 3.136 3.5 4a47.653 47.653 0 0 0 5 12 7.293 7.293 0 0 1 2-3c-1.12 3.296-.286 6.13 2.5 8.5l-1 1c1.123 1.044 2.456 1.71 4 2l-2 1a86.77 86.77 0 0 1 11 20.5c4.393-.043 4.726.457 1 1.5 3.578 4.39 6.745 9.556 9.5 15.5l1-2c.684 1.284.517 2.451-.5 3.5 4.003 5.752 7.836 12.252 11.5 19.5l1-1c1.487.753 1.654 1.586.5 2.5 2.116 1.171 2.782 2.671 2 4.5a54.94 54.94 0 0 1 4.5 8l1-1a37.829 37.829 0 0 0 3.5 4c-6.342.166-12.675 0-19-.5a6.978 6.978 0 0 1-3.5-2.5c-.883-2.602-2.383-4.769-4.5-6.5-.579-1.425-.579-3.092 0-5-2.667-1.333-4.667-3.333-6-6 2.378-.974 2.044-1.641-1-2 1.333-1.84 1.166-2.34-.5-1.5-14.573-24.751-29.74-51.251-45.5-79.5l1-1a4.934 4.934 0 0 0-3-.5c-.17-1.322.163-2.489 1-3.5-2.05-.416-3.384-1.583-4-3.5 5.462-1.966 11.129-2.966 17-3Z"/><path style="opacity:1" fill="#258def" d="M358.5 662.5c.616 1.917 1.95 3.084 4 3.5-.837 1.011-1.17 2.178-1 3.5a4.934 4.934 0 0 1 3 .5l-1 1c15.76 28.249 30.927 54.749 45.5 79.5 1.666-.84 1.833-.34.5 1.5 3.044.359 3.378 1.026 1 2 1.333 2.667 3.333 4.667 6 6-.579 1.908-.579 3.575 0 5 2.117 1.731 3.617 3.898 4.5 6.5a6.978 6.978 0 0 0 3.5 2.5c6.325.5 12.658.666 19 .5h74v1c-42.668-.167-85.335 0-128 .5-4.68.837-9.346 1.671-14 2.5-.984-2.57-2.151-2.57-3.5 0-5.774-9.959-10.941-19.293-15.5-28a3.647 3.647 0 0 1 1-1.5c-1.544-.29-2.877-.956-4-2l1-1c-2.667-1-2.667-2 0-3-2.56-.227-4.226-1.56-5-4 2.432-1.087 2.098-1.587-1-1.5-1.433-3.065-3.433-6.565-6-10.5.34-3.095-1.326-5.928-5-8.5-1.893-3.204-3.06-6.537-3.5-10 .914 1.154 1.747.987 2.5-.5-5.295-.961-8.128-4.128-8.5-9.5l-1 2c-1.202-2.053-1.536-4.053-1-6-3.692-2.361-6.192-5.694-7.5-10 .502-1.216.835-2.383 1-3.5-3.198-.957-4.198-2.791-3-5.5 13.28-6.313 27.28-10.647 42-13Z"/><path style="opacity:1" fill="#2892ef" d="M316.5 675.5c-1.198 2.709-.198 4.543 3 5.5-.165 1.117-.498 2.284-1 3.5 1.308 4.306 3.808 7.639 7.5 10-.536 1.947-.202 3.947 1 6l1-2c.372 5.372 3.205 8.539 8.5 9.5-.753 1.487-1.586 1.654-2.5.5.44 3.463 1.607 6.796 3.5 10 3.674 2.572 5.34 5.405 5 8.5 2.567 3.935 4.567 7.435 6 10.5 3.098-.087 3.432.413 1 1.5.774 2.44 2.44 3.773 5 4-2.667 1-2.667 2 0 3l-1 1c1.123 1.044 2.456 1.71 4 2a3.647 3.647 0 0 0-1 1.5c4.559 8.707 9.726 18.041 15.5 28 1.349-2.57 2.516-2.57 3.5 0-15.602 5.301-29.936 12.968-43 23-.689-1.207-.855-2.541-.5-4l-1 1a36.078 36.078 0 0 0-3.5-4.5v-4a6.978 6.978 0 0 1-3.5-2.5c-2.144-4.487-4.31-8.654-6.5-12.5l2-1c-1.5-.833-2.667-2-3.5-3.5-1.666.84-1.833.34-.5-1.5a7.293 7.293 0 0 0-3-2l2-1c-2.021-.513-3.521-1.68-4.5-3.5-5.689-10.54-11.856-21.373-18.5-32.5l3-1c-1.527-1.368-3.027-1.868-4.5-1.5l-8.5-15a3.647 3.647 0 0 1 1-1.5l-4-3 2-1c-3.363-1.899-5.363-4.732-6-8.5 13.001-9.298 27.001-16.964 42-23Z"/><path style="opacity:1" fill="#2b96ef" d="M274.5 698.5c.637 3.768 2.637 6.601 6 8.5l-2 1 4 3a3.647 3.647 0 0 0-1 1.5l8.5 15c1.473-.368 2.973.132 4.5 1.5l-3 1c6.644 11.127 12.811 21.96 18.5 32.5.979 1.82 2.479 2.987 4.5 3.5l-2 1a7.293 7.293 0 0 1 3 2c-1.333 1.84-1.166 2.34.5 1.5.833 1.5 2 2.667 3.5 3.5l-2 1c2.19 3.846 4.356 8.013 6.5 12.5a6.978 6.978 0 0 0 3.5 2.5v4a36.078 36.078 0 0 1 3.5 4.5l1-1c-.355 1.459-.189 2.793.5 4a57.51 57.51 0 0 1-9 9c-2.982-1.629-4.982-4.129-6-7.5.405-.945 1.072-1.612 2-2-2.687-.341-4.687-1.674-6-4l1-1a9.454 9.454 0 0 1-2.5-1.5 18.593 18.593 0 0 0-3.5-6.5l1-1c-2.472-1.798-4.139-4.132-5-7l2-1c-1.167-.5-2-1.333-2.5-2.5l-1 1c-3.032-5.02-6.032-10.02-9-15a21.438 21.438 0 0 0 0-5c-2.055.995-3.221.162-3.5-2.5a3.943 3.943 0 0 1 1-2c-3-.333-4.667-2-5-5 2.777-2.173 2.61-2.673-.5-1.5l-2-2a363.75 363.75 0 0 0-11.5-19.5l2-2c-3.82-1.753-5.82-4.42-6-8a42.807 42.807 0 0 1-6-7.5 60.95 60.95 0 0 1 12-9Z"/><path style="opacity:1" fill="#2e9aee" d="M262.5 707.5a42.807 42.807 0 0 0 6 7.5c.18 3.58 2.18 6.247 6 8l-2 2a363.75 363.75 0 0 1 11.5 19.5l2 2c3.11-1.173 3.277-.673.5 1.5.333 3 2 4.667 5 5a3.943 3.943 0 0 0-1 2c.279 2.662 1.445 3.495 3.5 2.5a21.438 21.438 0 0 1 0 5c2.968 4.98 5.968 9.98 9 15l1-1c.5 1.167 1.333 2 2.5 2.5l-2 1c.861 2.868 2.528 5.202 5 7l-1 1a18.593 18.593 0 0 1 3.5 6.5 9.454 9.454 0 0 0 2.5 1.5l-1 1c1.313 2.326 3.313 3.659 6 4-.928.388-1.595 1.055-2 2 1.018 3.371 3.018 5.871 6 7.5-10.474 11.474-18.474 24.474-24 39-1.029-.626-2.029-1.459-3-2.5 2.777-2.173 2.61-2.673-.5-1.5.811-2.291-.023-4.125-2.5-5.5.65-1.609.15-3.109-1.5-4.5l-1 1a20.889 20.889 0 0 0-3.5-6.5c2.443-2.558 1.943-3.392-1.5-2.5-1.113-1.26-1.28-2.427-.5-3.5a9.454 9.454 0 0 1-1.5-2.5l-1 1a7192.544 7192.544 0 0 0-17.5-30.5c.951-.718 1.117-1.551.5-2.5-.667-1.333-1.333-1.333-2 0a954.854 954.854 0 0 0-12.5-22.5l1-1a4.934 4.934 0 0 0-3-.5c-1.312-5.551-3.645-10.051-7-13.5l1-1c-1.393-1.171-2.227-2.671-2.5-4.5-.914 1.154-1.747.987-2.5-.5l1-1a45.733 45.733 0 0 1-6-10.5 184.972 184.972 0 0 1 29-27Z"/><path style="opacity:1" fill="#0d74ee" d="M864.5 729.5h3a17.65 17.65 0 0 0-.5 6l1-2a22.567 22.567 0 0 0 3.5 5 4.457 4.457 0 0 1-2 1.5c1.807 2.276 3.307 2.443 4.5.5.412 3.991 2.246 7.158 5.5 9.5l-1 1a19.887 19.887 0 0 1 4 3.5c-.941-.011-1.608.489-2 1.5.84 1.767 2.173 3.101 4 4-1.054 1.388-1.22 2.888-.5 4.5 1.351-.054 2.518.446 3.5 1.5-.405.945-1.072 1.612-2 2 1.438.219 2.771.719 4 1.5-1.071 1.825-.404 2.992 2 3.5-2.764 1.544-2.597 2.711.5 3.5 3.621 5.557 6.287 11.224 8 17l1-1a66.06 66.06 0 0 0 5 8c1.309 2.186 1.476 4.353.5 6.5 3.995 2.66 6.995 6.16 9 10.5a3.647 3.647 0 0 1-1 1.5 6.802 6.802 0 0 1 3 1.5 833.386 833.386 0 0 0 16 28c-.346 1.196-.846 1.196-1.5 0-.667 1-.667 2 0 3 1-1.333 2-1.333 3 0 2.141 4.32 4.307 8.153 6.5 11.5-1.333 1.84-1.166 2.34.5 1.5a29.517 29.517 0 0 0 2.5 4.5l-1 1a4.934 4.934 0 0 0 3 .5c.626 2.815 1.96 5.315 4 7.5l-1 1c10.012 15.114 19.346 31.281 28 48.5a150.713 150.713 0 0 1-6 27c-1.879.107-2.212-.393-1-1.5-1.282-3.242-3.282-5.909-6-8l1-1a21.83 21.83 0 0 0-5-6l1-1c-3.708-3.276-5.875-7.11-6.5-11.5-1.835-3.376-4.335-6.042-7.5-8l2-1a4.457 4.457 0 0 0-2-1.5c.656-2.33-.344-3.997-3-5 .799-2.228-.201-3.561-3-4a3.647 3.647 0 0 0 1-1.5 4876.204 4876.204 0 0 1-16.5-29c-1.666.84-1.833.34-.5-1.5-2.261-2.058-3.928-4.558-5-7.5-2.961-.683-3.295-1.516-1-2.5-.774-2.44-2.44-3.773-5-4l2-1a11.333 11.333 0 0 1-1.5-3.5c-2.438 1.366-2.938.866-1.5-1.5-.424-4.059-1.924-4.559-4.5-1.5 2.442-3.98 1.275-6.813-3.5-8.5 1.073-1.25 1.073-2.584 0-4-4.577-6.344-8.077-12.844-10.5-19.5a23.65 23.65 0 0 0-3.5-3c1.05-1.602.383-2.435-2-2.5l2-1c-2.442-2.371-4.276-5.204-5.5-8.5l-1 1c-.562-3.372-2.062-6.205-4.5-8.5l1-1-5-5a3.943 3.943 0 0 1 1-2c-4.166-4.759-7.166-9.759-9-15a4.457 4.457 0 0 0 2-1.5c-2.002-.196-3.669-.863-5-2 1.314-1.952 1.98-3.785 2-5.5a4.934 4.934 0 0 0-3-.5v-36Z"/><path style="opacity:1" fill="#309eee" d="M233.5 734.5a45.733 45.733 0 0 0 6 10.5l-1 1c.753 1.487 1.586 1.654 2.5.5.273 1.829 1.107 3.329 2.5 4.5l-1 1c3.355 3.449 5.688 7.949 7 13.5a4.934 4.934 0 0 1 3 .5l-1 1a954.854 954.854 0 0 1 12.5 22.5c.667-1.333 1.333-1.333 2 0 .617.949.451 1.782-.5 2.5a7192.544 7192.544 0 0 1 17.5 30.5l1-1c.374.916.874 1.75 1.5 2.5-.78 1.073-.613 2.24.5 3.5 3.443-.892 3.943-.058 1.5 2.5a20.889 20.889 0 0 1 3.5 6.5l1-1c1.65 1.391 2.15 2.891 1.5 4.5 2.477 1.375 3.311 3.209 2.5 5.5 3.11-1.173 3.277-.673.5 1.5.971 1.041 1.971 1.874 3 2.5a97.92 97.92 0 0 0-6 27c-.802 1.452-1.302 3.118-1.5 5-2.017-4.806-4.851-9.639-8.5-14.5 1.456-.423 1.956-1.256 1.5-2.5l-1 1a17.347 17.347 0 0 1-4.5-7.5l1-1c-2.549-.751-4.216-2.418-5-5l1-1a165.549 165.549 0 0 1-8.5-11.5c-3.592-6.202-6.759-12.202-9.5-18a3.647 3.647 0 0 1 1-1.5 51.182 51.182 0 0 0-5-4.5 3.647 3.647 0 0 1 1-1.5c-3.259-2.59-5.759-5.756-7.5-9.5-.687-2.139-1.02-4.472-1-7-1.065 1.896-1.898 2.063-2.5.5.405-.945 1.072-1.612 2-2-5.187-3.177-8.854-7.677-11-13.5a3.647 3.647 0 0 1 1-1.5 8.905 8.905 0 0 1-4-3v-3a136.092 136.092 0 0 0-8-11c-.1-2.355-1.267-4.522-3.5-6.5a42.47 42.47 0 0 1-1.5-5 185.447 185.447 0 0 1 14-18Z"/><path style="opacity:1" fill="#35a1ee" d="M219.5 752.5a42.47 42.47 0 0 0 1.5 5c2.233 1.978 3.4 4.145 3.5 6.5a136.092 136.092 0 0 1 8 11v3a8.905 8.905 0 0 0 4 3 3.647 3.647 0 0 0-1 1.5c2.146 5.823 5.813 10.323 11 13.5-.928.388-1.595 1.055-2 2 .602 1.563 1.435 1.396 2.5-.5-.02 2.528.313 4.861 1 7 1.741 3.744 4.241 6.91 7.5 9.5a3.647 3.647 0 0 0-1 1.5 51.182 51.182 0 0 1 5 4.5 3.647 3.647 0 0 0-1 1.5c2.741 5.798 5.908 11.798 9.5 18a165.549 165.549 0 0 0 8.5 11.5l-1 1c.784 2.582 2.451 4.249 5 5l-1 1a17.347 17.347 0 0 0 4.5 7.5l1-1c.456 1.244-.044 2.077-1.5 2.5 3.649 4.861 6.483 9.694 8.5 14.5.198-1.882.698-3.548 1.5-5-2.205 53.285 20.462 91.619 68 115-24.466-9.126-43.133-25.126-56-48a3845.33 3845.33 0 0 0-124-1v-1h64c18.003.167 36.003 0 54-.5-2.624-.576-3.291-1.91-2-4a4.934 4.934 0 0 0-3-.5c-.687-5.865-3.354-10.698-8-14.5l1-1a114.996 114.996 0 0 1-8-12l1-1c-4.046-3.776-6.38-8.109-7-13a87.421 87.421 0 0 1-9-12.5c1.109-1.714.442-2.381-2-2a211.297 211.297 0 0 0-19.5-35c-.492-1.049-.326-2.049.5-3a15.855 15.855 0 0 1-5.5-6c-3.782-7.302-7.615-14.135-11.5-20.5l1-1c-2.762-1.345-3.762-3.345-3-6-2.386-.284-3.052-1.284-2-3-3.131-2.454-5.464-5.454-7-9l2-2a12.403 12.403 0 0 1-4-2.5c-2.349-4.208-4.682-7.874-7-11a4.457 4.457 0 0 1 2-1.5c-2.572-.432-3.906-1.932-4-4.5a137.852 137.852 0 0 1 15-23Z"/><path style="opacity:1" fill="#1672ee" d="M863.5 657.5h1v108a4.934 4.934 0 0 1 3 .5c-.02 1.715-.686 3.548-2 5.5 1.331 1.137 2.998 1.804 5 2a4.457 4.457 0 0 1-2 1.5c1.834 5.241 4.834 10.241 9 15a3.943 3.943 0 0 0-1 2l5 5-1 1c2.438 2.295 3.938 5.128 4.5 8.5l1-1c1.224 3.296 3.058 6.129 5.5 8.5l-2 1c2.383.065 3.05.898 2 2.5a23.65 23.65 0 0 1 3.5 3c2.423 6.656 5.923 13.156 10.5 19.5 1.073 1.416 1.073 2.75 0 4 4.775 1.687 5.942 4.52 3.5 8.5 2.576-3.059 4.076-2.559 4.5 1.5-1.438 2.366-.938 2.866 1.5 1.5a11.333 11.333 0 0 0 1.5 3.5l-2 1c2.56.227 4.226 1.56 5 4-2.295.984-1.961 1.817 1 2.5 1.072 2.942 2.739 5.442 5 7.5-1.333 1.84-1.166 2.34.5 1.5a4876.204 4876.204 0 0 0 16.5 29 3.647 3.647 0 0 1-1 1.5c2.799.439 3.799 1.772 3 4 2.656 1.003 3.656 2.67 3 5a4.457 4.457 0 0 1 2 1.5l-2 1c3.165 1.958 5.665 4.624 7.5 8 .625 4.39 2.792 8.224 6.5 11.5l-1 1a21.83 21.83 0 0 1 5 6l-1 1c2.718 2.091 4.718 4.758 6 8-1.212 1.107-.879 1.607 1 1.5a106.29 106.29 0 0 1-7 18c-7.003-10.83-13.837-22.83-20.5-36l-3.5-3.5 1-1c-2.749-1.28-3.916-3.113-3.5-5.5-10.3-16.325-19.634-32.659-28-49-.667 1.333-1.333 1.333-2 0-.617-.949-.451-1.782.5-2.5a712.897 712.897 0 0 0-11-17l1-1a16.661 16.661 0 0 1-4-4l1-1c-2.383-.065-3.05-.898-2-2.5-.468-1.634-1.468-2.8-3-3.5l1-1a160.896 160.896 0 0 1-12.5-21.5c-.667 1.333-1.333 1.333-2 0-.278-4.053-1.778-7.553-4.5-10.5l-4-2c2.267-1.081 2.434-2.581.5-4.5-1.113-1.211-2.28-1.211-3.5 0-1 21.656-1.333 43.323-1 65 .323 6.522-.01 12.855-1 19v-115h-228c75.832-.999 151.832-1.333 228-1v-117Z"/><path style="opacity:1" fill="#fefefe" d="M517.5 775.5c.167 41.001 0 82.001-.5 123-1.995 16.317-6.995 31.65-15 46-25.544 39.622-62.044 57.96-109.5 55-3.795-1.117-7.795-1.783-12-2-1.599.268-2.932-.066-4-1-3.005-1.777-6.338-2.777-10-3-1.28-1.431-2.947-2.098-5-2-47.538-23.381-70.205-61.715-68-115a97.92 97.92 0 0 1 6-27c5.526-14.526 13.526-27.526 24-39a57.51 57.51 0 0 0 9-9c13.064-10.032 27.398-17.699 43-23 4.654-.829 9.32-1.663 14-2.5 42.665-.5 85.332-.667 128-.5Zm118 0h228v115c-.086 4.357-.42 8.69-1 13-3.028 20.376-10.695 38.71-23 55-6 6.667-12.333 13-19 19a155.014 155.014 0 0 1-36 19c-15.366 4.12-31.032 5.79-47 5a227.895 227.895 0 0 1-24-5c.268-1.599-.066-2.932-1-4-45.023-17.214-70.523-49.881-76.5-98a7077.14 7077.14 0 0 1-.5-119Z"/><path style="opacity:1" fill="#36a5ee" d="M204.5 775.5c.094 2.568 1.428 4.068 4 4.5a4.457 4.457 0 0 0-2 1.5c2.318 3.126 4.651 6.792 7 11a12.403 12.403 0 0 0 4 2.5l-2 2c1.536 3.546 3.869 6.546 7 9-1.052 1.716-.386 2.716 2 3-.762 2.655.238 4.655 3 6l-1 1c3.885 6.365 7.718 13.198 11.5 20.5a15.855 15.855 0 0 0 5.5 6c-.826.951-.992 1.951-.5 3a211.297 211.297 0 0 1 19.5 35c2.442-.381 3.109.286 2 2a87.421 87.421 0 0 0 9 12.5c.62 4.891 2.954 9.224 7 13l-1 1a114.996 114.996 0 0 0 8 12l-1 1c4.646 3.802 7.313 8.635 8 14.5a4.934 4.934 0 0 1 3 .5c-1.291 2.09-.624 3.424 2 4-17.997.5-35.997.667-54 .5a921.286 921.286 0 0 1-10.5-21l-1 1a193.967 193.967 0 0 1-6.5-11.5l2-1c-4.117-.549-4.784-2.216-2-5-3.277-.947-5.61-2.947-7-6 1.134-1.016.801-1.683-1-2l2-1c-2.655-1.278-4.655-3.278-6-6-3.433-6.989-7.433-14.156-12-21.5l2-1c-1.307-1.703-3.14-3.37-5.5-5-2.877-5.35-5.71-10.184-8.5-14.5l1-1a30.326 30.326 0 0 1-6-7v-4c-2.135-.876-3.469-2.376-4-4.5 4.344-19.665 11.677-37.998 22-55Z"/><path style="opacity:1" fill="#0a6def" d="M964.5 972.5c-4.238 13.81-10.572 26.477-19 38-9.008-16.232-18.675-33.232-29-51a3.647 3.647 0 0 0-1.5 1c-.456-1.244.044-2.077 1.5-2.5-1.123-1.044-2.456-1.71-4-2 1.017-1.049 1.184-2.216.5-3.5a201.25 201.25 0 0 1-13.5-23c-3.69-1.767-5.19-4.434-4.5-8a49.883 49.883 0 0 0-6.5-9.5l1-1a32.087 32.087 0 0 1-4-3.5c-1.919-3.902-3.586-7.569-5-11a10.258 10.258 0 0 0-4-1.5l3-1c-4.721-7.334-8.887-14.5-12.5-21.5-.671-.752-1.504-1.086-2.5-1-.333-21.677 0-43.344 1-65 1.22-1.211 2.387-1.211 3.5 0 1.934 1.919 1.767 3.419-.5 4.5l4 2c2.722 2.947 4.222 6.447 4.5 10.5.667 1.333 1.333 1.333 2 0a160.896 160.896 0 0 0 12.5 21.5l-1 1c1.532.7 2.532 1.866 3 3.5-1.05 1.602-.383 2.435 2 2.5l-1 1a16.661 16.661 0 0 0 4 4l-1 1a712.897 712.897 0 0 1 11 17c-.951.718-1.117 1.551-.5 2.5.667 1.333 1.333 1.333 2 0 8.366 16.341 17.7 32.675 28 49-.416 2.387.751 4.22 3.5 5.5l-1 1 3.5 3.5c6.663 13.17 13.497 25.17 20.5 36Z"/><path style="opacity:1" fill="#3babee" d="M182.5 830.5c.531 2.124 1.865 3.624 4 4.5v4a30.326 30.326 0 0 0 6 7l-1 1c2.79 4.316 5.623 9.15 8.5 14.5 2.36 1.63 4.193 3.297 5.5 5l-2 1c4.567 7.344 8.567 14.511 12 21.5 1.345 2.722 3.345 4.722 6 6l-2 1c1.801.317 2.134.984 1 2 1.39 3.053 3.723 5.053 7 6-2.784 2.784-2.117 4.451 2 5l-2 1a193.967 193.967 0 0 0 6.5 11.5l1-1a921.286 921.286 0 0 0 10.5 21h-64c-4.643-18.667-6.643-37.667-6-57-.767-18.538 1.567-36.538 7-54Z"/><path style="opacity:1" fill="#0969ef" d="M864.5 871.5c.996-.086 1.829.248 2.5 1 3.613 7 7.779 14.166 12.5 21.5l-3 1c1.438.219 2.771.719 4 1.5 1.414 3.431 3.081 7.098 5 11a32.087 32.087 0 0 0 4 3.5l-1 1a49.883 49.883 0 0 1 6.5 9.5c-.69 3.566.81 6.233 4.5 8a201.25 201.25 0 0 0 13.5 23c.684 1.284.517 2.451-.5 3.5 1.544.29 2.877.956 4 2-1.456.423-1.956 1.256-1.5 2.5a3.647 3.647 0 0 1 1.5-1c10.325 17.768 19.992 34.768 29 51a60.165 60.165 0 0 1-10 15 73.789 73.789 0 0 0-5.5-10c-.718.95-1.551 1.12-2.5.5.165-1.12.498-2.28 1-3.5-6.113-10.82-12.447-20.985-19-30.5l1-1a36.741 36.741 0 0 0-7-10l1-1a28.415 28.415 0 0 1-4.5-7.5 20.499 20.499 0 0 1-3.5-2.5c1.052-1.716.386-2.716-2-3l2-1c-2.193-2.876-4.026-6.043-5.5-9.5-2.109-.535-2.609-1.535-1.5-3-2.807-3.284-4.807-6.951-6-11-3.098.087-3.432-.413-1-1.5a403.942 403.942 0 0 1-10.5-16.5c-.688 5.102-1.521 4.936-2.5-.5.695-4.45-.971-7.95-5-10.5.96-1.312.794-2.646-.5-4-.21 1.558-.71 2.891-1.5 4 .58-4.31.914-8.643 1-13 .99-6.145 1.323-12.478 1-19Z"/><path style="opacity:1" fill="#0665ef" d="M935.5 1025.5c-10.256 14.26-22.256 26.92-36 38-.672-2.84-2.006-5.34-4-7.5 1.456-.42 1.956-1.26 1.5-2.5-1.613 1.12-2.78.62-3.5-1.5.667-.33 1.333-.67 2-1a14.506 14.506 0 0 1-5-4c.333-.33.667-.67 1-1a9.246 9.246 0 0 1-2.5-1.5c-2.309-3.56-3.642-7.23-4-11-.451 2.43-1.285 2.6-2.5.5.333-.33.667-.67 1-1a150.7 150.7 0 0 1-9-14.5c.209-.59.543-1.09 1-1.5a7.014 7.014 0 0 1-3.5-2.5c-1.5-2.67-3-5.33-4.5-8a4.486 4.486 0 0 1 2-1.5c-4.658-.64-5.658-2.64-3-6-1.284-.684-2.451-.517-3.5.5-1.368-1.527-1.868-3.027-1.5-4.5l2-1a15.256 15.256 0 0 1-4.5-1.5c-.813-3.321-2.313-6.321-4.5-9a3.647 3.647 0 0 1 1-1.5c-3.207-1.135-4.541-3.135-4-6a21.83 21.83 0 0 1-5-6l1-1a9.454 9.454 0 0 1-2.5-1.5 83.408 83.408 0 0 0-5.5-9c12.305-16.29 19.972-34.624 23-55 .79-1.109 1.29-2.442 1.5-4 1.294 1.354 1.46 2.688.5 4 4.029 2.55 5.695 6.05 5 10.5.979 5.436 1.812 5.602 2.5.5a403.942 403.942 0 0 0 10.5 16.5c-2.432 1.087-2.098 1.587 1 1.5 1.193 4.049 3.193 7.716 6 11-1.109 1.465-.609 2.465 1.5 3 1.474 3.457 3.307 6.624 5.5 9.5l-2 1c2.386.284 3.052 1.284 2 3a20.499 20.499 0 0 0 3.5 2.5 28.415 28.415 0 0 0 4.5 7.5l-1 1a36.741 36.741 0 0 1 7 10l-1 1c6.553 9.515 12.887 19.68 19 30.5-.502 1.22-.835 2.38-1 3.5.949.62 1.782.45 2.5-.5a73.789 73.789 0 0 1 5.5 10Z"/><path style="opacity:1" fill="#0968ef" d="M839.5 958.5a83.408 83.408 0 0 1 5.5 9 9.454 9.454 0 0 0 2.5 1.5l-1 1a21.83 21.83 0 0 0 5 6c-.541 2.865.793 4.865 4 6a3.647 3.647 0 0 0-1 1.5c2.187 2.679 3.687 5.679 4.5 9a15.256 15.256 0 0 0 4.5 1.5l-2 1c-.368 1.473.132 2.973 1.5 4.5 1.049-1.017 2.216-1.184 3.5-.5-2.658 3.36-1.658 5.36 3 6-.808.31-1.475.81-2 1.5 1.5 2.67 3 5.33 4.5 8a7.014 7.014 0 0 0 3.5 2.5c-.457.41-.791.91-1 1.5a150.7 150.7 0 0 0 9 14.5c-.333.33-.667.67-1 1 1.215 2.1 2.049 1.93 2.5-.5.358 3.77 1.691 7.44 4 11 .75.63 1.584 1.13 2.5 1.5-.333.33-.667.67-1 1a14.506 14.506 0 0 0 5 4c-.667.33-1.333.67-2 1 .72 2.12 1.887 2.62 3.5 1.5.456 1.24-.044 2.08-1.5 2.5 1.994 2.16 3.328 4.66 4 7.5a58.772 58.772 0 0 1-8 7.5 152.576 152.576 0 0 1-13 8.5 192.788 192.788 0 0 1-7-10.5v-3a32.33 32.33 0 0 1-5-6c.333-.33.667-.67 1-1a50.744 50.744 0 0 1-8-11c.457-.41.791-.91 1-1.5-1-.83-2-1.67-3-2.5-1.928-5.26-4.928-10.43-9-15.5a6.824 6.824 0 0 1 3-1.5 10.29 10.29 0 0 1-4-1.5 321.459 321.459 0 0 1-9-14.5c.667-.33 1.333-.67 2-1a12.088 12.088 0 0 0-4.5-3.5c-5.857-9.608-11.023-19.274-15.5-29 6.667-6 13-12.333 19-19Z"/><path style="opacity:1" fill="#0d6df0" d="M820.5 977.5c4.477 9.726 9.643 19.392 15.5 29 1.771.8 3.271 1.97 4.5 3.5-.667.33-1.333.67-2 1 2.875 4.92 5.875 9.75 9 14.5a10.29 10.29 0 0 0 4 1.5 6.824 6.824 0 0 0-3 1.5c4.072 5.07 7.072 10.24 9 15.5 1 .83 2 1.67 3 2.5a3.595 3.595 0 0 1-1 1.5 50.744 50.744 0 0 0 8 11c-.333.33-.667.67-1 1a32.33 32.33 0 0 0 5 6v3c2.248 3.62 4.581 7.12 7 10.5-11.057 8.2-23.057 14.87-36 20-1.332-4.67-3.499-8.67-6.5-12-2.685-7.54-6.518-14.38-11.5-20.5 1.333-1.84 1.166-2.34-.5-1.5-1.833-3.17-3.667-6.33-5.5-9.5.667-.33 1.333-.67 2-1a19.031 19.031 0 0 1-5-3l1-3c-1.421-1.42-3.255-3.25-5.5-5.5-2.25-4.83-4.75-9.5-7.5-14 .209-.59.543-1.09 1-1.5-1.791-.42-3.124-1.42-4-3v-4c-1-.33-2-.67-3-1 1.333-1.84 1.166-2.34-.5-1.5a6.97 6.97 0 0 0-2.5-3.5c.457-.41.791-.91 1-1.5-3.901-5.03-7.568-10.69-11-17a155.014 155.014 0 0 0 36-19Z"/><path style="opacity:1" fill="#409aef" d="M361.5 991.5c2.053-.098 3.72.569 5 2-2.053.098-3.72-.569-5-2Z"/><path style="opacity:1" fill="#6eadf2" d="M366.5 993.5c3.662.223 6.995 1.223 10 3-3.662-.223-6.995-1.223-10-3Z"/><path style="opacity:1" fill="#1579f1" d="M712.5 992.5c.934 1.068 1.268 2.401 1 4a227.895 227.895 0 0 0 24 5c6.15 9.31 11.65 18.98 16.5 29 1.586.88 3.086 1.88 4.5 3-.86 3.7.473 6.53 4 8.5-.333.33-.667.67-1 1 2.623 4.09 5.623 8.42 9 13-.78 1.07-.613 2.24.5 3.5 1 1.33 2 1.33 3 0a9.39 9.39 0 0 0 1.5 2.5c-1.238-.08-2.238.09-3 .5.864 1.7 2.197 2.86 4 3.5v4a45.056 45.056 0 0 1 5.5 9.5c.979 1.82 2.479 2.99 4.5 3.5-.667.33-1.333.67-2 1a16.715 16.715 0 0 0 4 4c-.333.33-.667.67-1 1 1.91 1.7 3.077 3.87 3.5 6.5.333-.33.667-.67 1-1 .772 1.35 1.939 2.18 3.5 2.5-.667.67-1.333 1.33-2 2 1.627 2.75 3.127 5.59 4.5 8.5.782 2.12 2.615 3.78 5.5 5-3.705 1.76-7.705 2.93-12 3.5a271.029 271.029 0 0 1-29 2.5c-1.245-3.49-3.245-6.49-6-9 .209-.59.543-1.09 1-1.5-4.954-4.77-8.121-10.27-9.5-16.5-.333.33-.667.67-1 1-1.113-1.26-1.28-2.43-.5-3.5-1.333-1.33-2.667-2.67-4-4-.335-1.16-.335-2.5 0-4-1.263-2.39-3.097-4.22-5.5-5.5a30.016 30.016 0 0 0-5.5-10c1.109-1.46.609-2.46-1.5-3a28.544 28.544 0 0 0-4.5-7.5c-1.073-1.42-1.073-2.75 0-4-3.525-1.58-5.025-4.08-4.5-7.5-.667 1.33-1.333 1.33-2 0-1.294-1.35-1.46-2.69-.5-4-.346-1.2-.846-1.2-1.5 0a47.967 47.967 0 0 0-2.5-5c-.667 26.5-1.333 52.83-2 79v-121Z"/><path style="opacity:1" fill="#1174f1" d="M784.5 996.5c3.432 6.31 7.099 11.97 11 17a3.595 3.595 0 0 1-1 1.5 6.97 6.97 0 0 1 2.5 3.5c1.666-.84 1.833-.34.5 1.5 1 .33 2 .67 3 1v4c.876 1.58 2.209 2.58 4 3-.457.41-.791.91-1 1.5 2.75 4.5 5.25 9.17 7.5 14 2.245 2.25 4.079 4.08 5.5 5.5l-1 3a19.031 19.031 0 0 0 5 3c-.667.33-1.333.67-2 1 1.833 3.17 3.667 6.33 5.5 9.5 1.666-.84 1.833-.34.5 1.5 4.982 6.12 8.815 12.96 11.5 20.5 3.001 3.33 5.168 7.33 6.5 12-12.328 6.11-25.328 10.44-39 13-2.885-1.22-4.718-2.88-5.5-5a103.059 103.059 0 0 0-4.5-8.5c.667-.67 1.333-1.33 2-2-1.561-.32-2.728-1.15-3.5-2.5-.333.33-.667.67-1 1-.423-2.63-1.59-4.8-3.5-6.5.333-.33.667-.67 1-1a16.715 16.715 0 0 1-4-4c.667-.33 1.333-.67 2-1-2.021-.51-3.521-1.68-4.5-3.5a45.056 45.056 0 0 0-5.5-9.5v-4c-1.803-.64-3.136-1.8-4-3.5.762-.41 1.762-.58 3-.5a9.39 9.39 0 0 1-1.5-2.5c-1 1.33-2 1.33-3 0-1.113-1.26-1.28-2.43-.5-3.5-3.377-4.58-6.377-8.91-9-13 .333-.33.667-.67 1-1-3.527-1.97-4.86-4.8-4-8.5a33.095 33.095 0 0 0-4.5-3 250.836 250.836 0 0 0-16.5-29c15.968.79 31.634-.88 47-5Z"/><path style="opacity:1" fill="#5496ef" d="M380.5 997.5c4.205.217 8.205.883 12 2-4.29.302-8.29-.364-12-2Z"/><path style="opacity:1" fill="#1a7ef2" d="M762.5 1118.5c-22.959 2.62-45.625.62-68-6-.333-.67-.667-1.33-1-2a466.408 466.408 0 0 0 19 3c.667-26.17 1.333-52.5 2-79a47.967 47.967 0 0 1 2.5 5c.654-1.2 1.154-1.2 1.5 0-.96 1.31-.794 2.65.5 4 .667 1.33 1.333 1.33 2 0-.525 3.42.975 5.92 4.5 7.5-1.073 1.25-1.073 2.58 0 4 1.88 2.26 3.38 4.76 4.5 7.5 2.109.54 2.609 1.54 1.5 3a30.016 30.016 0 0 1 5.5 10c2.403 1.28 4.237 3.11 5.5 5.5-.335 1.5-.335 2.84 0 4 1.333 1.33 2.667 2.67 4 4-.78 1.07-.613 2.24.5 3.5.333-.33.667-.67 1-1 1.379 6.23 4.546 11.73 9.5 16.5-.457.41-.791.91-1 1.5 2.755 2.51 4.755 5.51 6 9Z"/><path style="opacity:1" fill="#368df4" d="M693.5 1110.5c.333.67.667 1.33 1 2-46.801-11.39-86.134-35.06-118-71 .397-1.03 1.063-1.19 2-.5 31.477 34.41 69.81 57.58 115 69.5Z"/></svg>
